<svg width="226" height="97" viewBox="0 0 226 97" fill="none" xmlns="http://www.w3.org/2000/svg">
<path d="M74.5468 56.1513L74.5466 56.1626V56.1739V57.251C74.4812 57.8061 74.4828 58.3551 74.563 58.8922L74.5726 58.9563L74.5876 59.0193C74.6233 59.1684 74.6398 59.3116 74.6398 59.451V59.6277L74.6808 59.7995L74.829 60.4199C74.8396 60.7688 74.8796 61.1158 74.9482 61.4604L74.9538 61.4884L74.9604 61.5161C75.0489 61.8866 75.1791 62.2463 75.3454 62.5944L75.3754 62.6572L75.4111 62.7169C75.484 62.839 75.5803 62.9819 75.7064 63.1226C75.8158 63.398 75.9782 63.6232 76.1406 63.7989C76.6193 64.6287 77.3387 65.2712 78.2044 65.7544L78.298 65.8067L78.3981 65.8451C80.1552 66.5194 82.0107 66.6669 83.9291 66.3156C85.0996 66.1491 86.2009 65.8244 87.0072 65.1813C87.3582 64.941 87.6832 64.6736 87.9566 64.3723C88.2418 64.0725 88.5002 63.7639 88.7282 63.4458L88.8349 63.2969L88.9026 63.1269C89.0311 62.804 89.1385 62.4866 89.2188 62.1773C89.3199 61.9281 89.4186 61.7034 89.5148 61.5021L89.5958 61.3326L89.6324 61.1483C89.6917 60.8504 89.7358 60.5508 89.7498 60.2634C89.8057 60.0017 89.8477 59.7223 89.8477 59.451V58.6846L90.4066 28.3126L90.4068 28.2988V28.285V26.9586V26.9568V26.9549V26.9531V26.9513V26.9495V26.9476V26.9458V26.944V26.9422V26.9403V26.9385V26.9367V26.9349V26.9331V26.9312V26.9294V26.9276V26.9258V26.924V26.9221V26.9203V26.9185V26.9167V26.9149V26.9131V26.9112V26.9094V26.9076V26.9058V26.904V26.9022V26.9004V26.8986V26.8968V26.895V26.8931V26.8913V26.8895V26.8877V26.8859V26.8841V26.8823V26.8805V26.8787V26.8769V26.8751V26.8733V26.8715V26.8697V26.8679V26.8661V26.8643V26.8625V26.8607V26.8589V26.8571V26.8553V26.8535V26.8517V26.8499V26.8481V26.8464V26.8446V26.8428V26.841V26.8392V26.8374V26.8356V26.8338V26.832V26.8303V26.8285V26.8267V26.8249V26.8231V26.8213V26.8195V26.8178V26.816V26.8142V26.8124V26.8106V26.8089V26.8071V26.8053V26.8035V26.8017V26.8V26.7982V26.7964V26.7946V26.7929V26.7911V26.7893V26.7876V26.7858V26.784V26.7822V26.7805V26.7787V26.7769V26.7752V26.7734V26.7716V26.7699V26.7681V26.7663V26.7646V26.7628V26.761V26.7593V26.7575V26.7557V26.754V26.7522V26.7505V26.7487V26.7469V26.7452V26.7434V26.7417V26.7399V26.7382V26.7364V26.7347V26.7329V26.7311V26.7294V26.7276V26.7259V26.7241V26.7224V26.7206V26.7189V26.7171V26.7154V26.7136V26.7119V26.7102V26.7084V26.7067V26.7049V26.7032V26.7014V26.6997V26.6979V26.6962V26.6945V26.6927V26.691V26.6892V26.6875V26.6858V26.684V26.6823V26.6806V26.6788V26.6771V26.6754V26.6736V26.6719V26.6702V26.6684V26.6667V26.665V26.6632V26.6615V26.6598V26.658V26.6563V26.6546V26.6529V26.6511V26.6494V26.6477V26.646V26.6442V26.6425V26.6408V26.6391V26.6373V26.6356V26.6339V26.6322V26.6305V26.6287V26.627V26.6253V26.6236V26.6219V26.6202V26.6185V26.6167V26.615V26.6133V26.6116V26.6099V26.6082V26.6065V26.6048V26.603V26.6013V26.5996V26.5979V26.5962V26.5945V26.5928V26.5911V26.5894V26.5877V26.586V26.5843V26.5826V26.5809V26.5792V26.5775V26.5758V26.5741V26.5724V26.5707V26.569V26.5673V26.5656V26.5639V26.5622V26.5605V26.5588V26.5571V26.5554V26.5537V26.552V26.5503V26.5487V26.547V26.5453V26.5436V26.5419V26.5402V26.5385V26.5368V26.5352V26.5335V26.5318V26.5301V26.5284V26.5267V26.5251V26.5234V26.5217V26.52V26.5183V26.5167V26.515V26.5133V26.5116V26.5099V26.5083V26.5066V26.5049V26.5032V26.5016V26.4999V26.4982V26.4966V26.4949V26.4932V26.4915V26.4899V26.4882V26.4865V26.4849V26.4832V26.4815V26.4799V26.4782V26.4765V26.4749V26.4732V26.4715V26.4699V26.4682V26.4666V26.4649V26.4632V26.4616V26.4599V26.4583V26.4566V26.455V26.4533V26.4516V26.45V26.4483V26.4467V26.445V26.4434V26.4417V26.4401V26.4384V26.4368V26.4351V26.4335V26.4318V26.4302V26.4285V26.4269V26.4252V26.4236V26.4219V26.4203V26.4186V26.417V26.4154V26.4137V26.4121V26.4104V26.4088V26.4072V26.4055V26.4039V26.4022V26.4006V26.399V26.3973V26.3957V26.3941V26.3924V26.3908V26.3892V26.3875V26.3859V26.3843V26.3826V26.381V26.3794V26.3777V26.3761V26.3745V26.3729V26.3712V26.3696V26.368V26.3664V26.3647V26.3631V26.3615V26.3599V26.3582V26.3566V26.355V26.3534V26.3518V26.3501V26.3485V26.3469V26.3453V26.3437V26.3421V26.3404V26.3388V26.3372V26.3356V26.334V26.3324V26.3308V26.3292V26.3275V26.3259V26.3243V26.3227V26.3211V26.3195V26.3179V26.3163V26.3147V26.3131V26.3115V26.3099V26.3083V26.3067V26.3051V26.3035V26.3019V26.3003V26.2987V26.2971V26.2955V26.2939V26.2923V26.2907V26.2891V26.2875V26.2859V26.2843V26.2827V26.2811V26.2795V26.2779V26.2763V26.2747V26.2731V26.2715V26.27V26.2684V26.2668V26.2652V26.2636V26.262V26.2604V26.2589V26.2573V26.2557V26.2541V26.2525V26.2509V26.2494V26.2478V26.2462V26.2446V26.243V26.2415V26.2399V26.2383V26.2371C90.4706 25.8643 90.5 25.4795 90.5 25.086C90.5 24.7226 90.4681 24.3609 90.4051 24.0017C90.3966 23.6378 90.3573 23.264 90.2923 22.8831L90.2888 22.8627L90.2848 22.8425C90.2135 22.4846 90.1092 22.1377 89.9672 21.8064C89.8884 21.4611 89.7814 21.1208 89.6481 20.7859L89.6152 20.7033L89.5728 20.6251C89.2072 19.9517 88.7452 19.339 88.1446 18.9027C87.3153 18.2229 86.3522 17.8082 85.2857 17.6694C84.8681 17.6115 84.4309 17.5822 83.9765 17.5784C83.5455 17.5242 83.0743 17.5 82.5699 17.5C81.4105 17.5 80.2508 17.7595 79.1018 18.2406L79.003 18.2819L78.9111 18.3369C77.8698 18.9596 77.0208 19.7488 76.4362 20.7277L76.428 20.7414L76.4201 20.7552C75.7231 21.9808 75.2835 23.2152 75.2022 24.4405L75.1989 24.4901V24.5398C75.1989 25.0576 75.1708 25.5757 75.1145 26.0945L75.1057 26.1752V26.2564C75.1057 26.7166 75.0783 27.1774 75.0231 27.639L75.0125 27.7276V27.8169V28.078C74.8888 29.9043 74.8262 31.5607 74.8262 33.0446V33.0531V33.0617V33.0702V33.0788V33.0873V33.0959V33.1044V33.113V33.1216V33.1302V33.1387V33.1473V33.1559V33.1645V33.1731V33.1817V33.1903V33.199V33.2076V33.2162V33.2248V33.2335V33.2421V33.2508V33.2594V33.2681V33.2767V33.2854V33.2941V33.3027V33.3114V33.3201V33.3288V33.3375V33.3462V33.3549V33.3636V33.3723V33.381V33.3898V33.3985V33.4072V33.4159V33.4247V33.4334V33.4422V33.4509V33.4597V33.4685V33.4772V33.486V33.4948V33.5036V33.5124V33.5212V33.53V33.5388V33.5476V33.5564V33.5652V33.574V33.5828V33.5917V33.6005V33.6094V33.6182V33.627V33.6359V33.6448V33.6536V33.6625V33.6714V33.6803V33.6891V33.698V33.7069V33.7158V33.7247V33.7336V33.7425V33.7515V33.7604V33.7693V33.7782V33.7872V33.7961V33.8051V33.814V33.823V33.8319V33.8409V33.8499V33.8588V33.8678V33.8768V33.8858V33.8948V33.9038V33.9128V33.9218V33.9308V33.9398V33.9488V33.9579V33.9669V33.9759V33.985V33.994V34.0031V34.0121V34.0212V34.0303V34.0393V34.0484V34.0575V34.0666V34.0757V34.0848V34.0938V34.103V34.1121V34.1212V34.1303V34.1394V34.1485V34.1577V34.1668V34.1759V34.1851V34.1942V34.2034V34.2126V34.2217V34.2309V34.2401V34.2492V34.2584V34.2676V34.2768V34.286V34.2952V34.3044V34.3136V34.3229V34.3321V34.3413V34.3505V34.3598V34.369V34.3783V34.3875V34.3968V34.406V34.4153V34.4246V34.4338V34.4431V34.4524V34.4617V34.471V34.4803V34.4896V34.4989V34.5082V34.5175V34.5268V34.5362V34.5455V34.5548V34.5642V34.5735V34.5829V34.5922V34.6016V34.611V34.6203V34.6297V34.6391V34.6485V34.6579V34.6672V34.6766V34.686V34.6955V34.7049V34.7143V34.7237V34.7331V34.7426V34.752V34.7614V34.7709V34.7803V34.7898V34.7993V34.8087V34.8182V34.8277V34.8371V34.8466V34.8561V34.8656V34.8751V34.8846V34.8941V34.9036V34.9132V34.9227V34.9322V34.9417V34.9513V34.9608V34.9704V34.9799V34.9895V34.999V35.0086V35.0182V35.0277V35.0373V35.0469V35.0565V35.0661V35.0757V35.0853V35.0949V35.1045V35.1141V35.1237V35.1334V35.143V35.1526V35.1623V35.1719V35.1816V35.1912V35.2009V35.2106V35.2202V35.2299V35.2396V35.2493V35.259V35.2686V35.2783V35.288V35.2978V35.3075V35.3172V35.3269V35.3366V35.3464V35.3561V35.3658V35.3756V35.3853V35.3951V35.4049V35.4146V35.4244V35.4342V35.4439V35.4537V35.4635V35.4733V35.4831V35.4929V35.5027V35.5125V35.5224V35.5322V35.542V35.5518V35.5617V35.5715V35.5814V35.5912V35.6011V35.6109V35.6208V35.6307V35.6405V35.6504V35.6603V35.6702V35.6801V35.69V35.6999V35.7098V35.7197V35.7296V35.7395V35.7495V35.7594V35.7693V35.7793V35.7892V35.7992V35.8091V35.8191V35.8291V35.839V35.849V35.859V35.869V35.879V35.8889V35.8989V35.9089V35.919V35.929V35.939V35.949V35.959V35.9691V35.9791V35.9891V35.9992V36.0092V36.0193V36.0294V36.0394V36.0495V36.0596V36.0696V36.0797V36.0898V36.0999V36.11V36.1201V36.1302V36.1403V36.1505V36.1606V36.1707V36.1808V36.191V36.2011V36.2113V36.2214V36.2316V36.2417V36.2519V36.2621V36.2722V36.2824V36.2926V36.3028V36.313V36.3232V36.3334V36.3436V36.3538V36.364V36.3742V36.3845V36.3947V36.4049V36.4152V36.4254V36.4357V36.4459V36.4562V36.4665V36.4767V36.487V36.4973V36.5076V36.5179V36.5282V36.5384V36.5488V36.5591V36.5694V36.5797V36.59V36.6003V36.6107V36.621V36.6313V36.6417V36.652V36.6624V36.6728V36.6831V36.6935V36.7039V36.7143V36.7246V36.735V36.7454V36.7558V36.7662V36.7766V36.787V36.7975V36.8079V36.8183V36.8287V36.8392V36.8496V36.8601V36.8705V36.881V36.8914V36.9019V36.9124V36.9228V36.9333V36.9438V36.9543V36.9648V36.9753V36.9858V36.9963V37.0068V37.0173V37.0278V37.0384V37.0489V37.0594V37.07V37.0805V37.0911V37.1016V37.1122V37.1228V37.1333V37.1439V37.1545V37.1651V37.1757V37.1863V37.1969V37.2075V37.2181V37.2287V37.2393V37.2499V37.2605V37.2712V37.2818V37.2925V37.3031V37.3137V37.3244V37.3351V37.3457V37.3564V37.3671V37.3778V37.3884V37.3991V37.4098V37.4205V37.4312V37.4419V37.4526V37.4634V37.4741V37.4848V37.4955V37.5063V37.517V37.5278V37.5385V37.5493V37.56V37.5708V37.5816V37.5923V37.6031V37.6139V37.6247V37.6355V37.6463V37.6571V37.6679V37.6787V37.6895V37.7004V37.7112V37.722V37.7328V37.7437V37.7545V37.7654V37.7762V37.7871V37.798V37.8088V37.8197V37.8306V37.8415V37.8524V37.8633V37.8742V37.8851V37.896V37.9069V37.9178V37.9287V37.9396V37.9506V37.9615V37.9725V37.9834V37.9944V38.0053V38.0163V38.0272V38.0382V38.0492V38.0601V38.0711V38.0821V38.0931V38.104V38.115V38.1259V38.1369V38.1479V38.1588V38.1698V38.1807V38.1917V38.2027V38.2136V38.2246V38.2355V38.2465V38.2574V38.2684V38.2793V38.2903V38.3012V38.3121V38.3231V38.334V38.345V38.3559V38.3668V38.3778V38.3887V38.3996V38.4106V38.4215V38.4324V38.4434V38.4543V38.4652V38.4761V38.4871V38.498V38.5089V38.5198V38.5308V38.5417V38.5526V38.5635V38.5744V38.5853V38.5962V38.6072V38.6181V38.629V38.6399V38.6508V38.6617V38.6726V38.6835V38.6944V38.7053V38.7162V38.7271V38.738V38.7489V38.7598V38.7707V38.7816V38.7925V38.8034V38.8142V38.8251V38.836V38.8469V38.8578V38.8687V38.8795V38.8904V38.9013V38.9122V38.9231V38.9339V38.9448V38.9557V38.9666V38.9774V38.9883V38.9992V39.01V39.0209V39.0318V39.0426V39.0535V39.0643V39.0752V39.0861V39.0969V39.1078V39.1186V39.1295V39.1403V39.1512V39.162V39.1729V39.1837V39.1946V39.2054V39.2163V39.2271V39.238V39.2488V39.2596V39.2705V39.2813V39.2922V39.303V39.3138V39.3247V39.3355V39.3463V39.3571V39.368V39.3788V39.3896V39.4004V39.4113V39.4221V39.4329V39.4437V39.4545V39.4654V39.4762V39.487V39.4978V39.5086V39.5194V39.5302V39.5411V39.5519V39.5627V39.5735V39.5843V39.5951V39.6059V39.6167V39.6275V39.6383V39.6491V39.6599V39.6707V39.6815V39.6922V39.703V39.7138V39.7246V39.7354V39.7462V39.757V39.7678V39.7785V39.7893V39.8001V39.8109V39.8217V39.8324V39.8432V39.854V39.8648V39.8755V39.8863V39.8971V39.9078V39.9186V39.9294V39.9401V39.9509V39.9617V39.9724V39.9832V39.9939V40.0047V40.0155V40.0262V40.037V40.0477V40.0585V40.0692V40.08V40.0907V40.1015V40.1122V40.1229V40.1337V40.1444V40.1552V40.1659V40.1767V40.1874V40.1981V40.2089V40.2196V40.2303V40.2411V40.2518V40.2625V40.2732V40.284V40.2947V40.3054V40.3161V40.3269V40.3376V40.3483V40.359V40.3697V40.3805V40.3912V40.4019V40.4126V40.4233V40.434V40.4447V40.4554V40.4661V40.4768V40.4875V40.4983V40.509V40.5197V40.5304V40.541V40.5517V40.5624V40.5731V40.5838V40.5945V40.6052V40.6159V40.6266V40.6373V40.648V40.6586V40.6693V40.68V40.6907V40.7014V40.7121V40.7227V40.7334V40.7441V40.7548V40.7654V40.7761V40.7868V40.7974V40.8081V40.8188V40.8294V40.8401V40.8508V40.8614V40.8721V40.8828V40.8934V40.9041V40.9147V40.9254V40.936V40.9467V40.9573V40.968V40.9786V40.9893V40.9999V41.0106V41.0212V41.0319V41.0425V41.0532V41.0638V41.0744V41.0851V41.0957V41.1063V41.117V41.1276V41.1382V41.1489V41.1595V41.1701V41.1807V41.1914V41.202V41.2126V41.2232V41.2339V41.2445V41.2551V41.2657V41.2763V41.2869V41.2976V41.3082V41.3188V41.3294V41.34V41.3506V41.3612V41.3718V41.3824V41.393V41.4036V41.4142V41.4248V41.4354V41.446V41.4566V41.4672V41.4778V41.4884V41.499V41.5096V41.5202V41.5308V41.5413V41.5519V41.5625V41.5731V41.5837V41.5942V41.6048V41.6154V41.626V41.6366V41.6471V41.6577V41.6683V41.6788V41.6894V41.7V41.7106V41.7211V41.7317V41.7422V41.7528V41.7634V41.7739V41.7845V41.795V41.8056V41.8162V41.8267V41.8373V41.8478V41.8584V41.8689V41.8795V41.89V41.9006V41.9111V41.9216V41.9322V41.9427V41.9533V41.9638V41.9743V41.9849V41.9954V42.0059V42.0165V42.027V42.0375V42.0481V42.0586V42.0691V42.0796V42.0902V42.1007V42.1112V42.1217V42.1323V42.1428V42.1533V42.1638V42.1743V42.1848V42.1953V42.2059V42.2164V42.2269V42.2374V42.2479V42.2584V42.2689V42.2794V42.2899V42.3004V42.3109V42.3214V42.3319V42.3424V42.3529V42.3634V42.3739V42.3844V42.3948V42.4053V42.4158V42.4263V42.4368V42.4473V42.4578V42.4682V42.4787V42.4892V42.4997V42.5102V42.5206V42.5311V42.5416V42.552V42.5625V42.573V42.5835V42.5939V42.6044V42.6149V42.6253V42.6358V42.6462V42.6567V42.6672V42.6776V42.6881V42.6985V42.709V42.7194V42.7299V42.7403V42.7508V42.7612V42.7717V42.7821V42.7926V42.803V42.8135V42.8239V42.8343V42.8448V42.8552V42.8656V42.8761V42.8865V42.8969V42.9074V42.9178V42.9282V42.9387V42.9491V42.9595V42.9699V42.9804V42.9908V43.0012V43.0116V43.022V43.0325V43.0429V43.0533V43.0637V43.0741V43.0845V43.0949V43.1053V43.1158V43.1262V43.1366V43.147V43.1574V43.1678V43.1782V43.1886V43.199V43.2094V43.2198V43.2302V43.2405V43.2509V43.2613V43.2717V43.2821V43.2925V43.3029V43.3133V43.3237V43.334V43.3444V43.3548V43.3652V43.3755V43.3859V43.3963V43.4067V43.417V43.4274V43.4378V43.4482V43.4585V43.4689V43.4793V43.4896V43.5C74.8262 45.2428 74.7957 46.9329 74.7349 48.5705L74.6433 49.9074L74.6406 49.9473L74.64 49.9873L74.5468 56.1513ZM76.8853 62.1819L76.6893 62.416L76.8853 62.1819Z" fill="white" stroke="black" stroke-width="3"/>
<path d="M88.9363 28.4673L88.9535 28.4677H88.9707H89.3788C89.7236 28.5181 90.0818 28.5122 90.4418 28.4307L90.5333 28.41L90.552 28.4032H90.7301L90.9776 28.3135L91.1314 28.2579C91.3197 28.2379 91.5042 28.1999 91.6839 28.1457L91.7229 28.1339L91.7613 28.12C92.0307 28.0224 92.2724 27.8861 92.4867 27.7308L92.5529 27.6829L92.6135 27.628C92.6777 27.5699 92.7462 27.5012 92.8137 27.421C92.8583 27.3874 92.8985 27.3538 92.9341 27.3215C93.024 27.2401 93.0994 27.155 93.1623 27.0733C93.6388 26.6307 93.9456 26.0525 94.1541 25.4859L94.1813 25.412L94.2006 25.3357C94.5099 24.1137 94.5755 22.8365 94.4162 21.5174C94.3428 20.7348 94.1997 19.9528 93.8806 19.3398C93.7681 19.0916 93.6342 18.8411 93.4707 18.6151C93.3229 18.4023 93.165 18.2009 92.9954 18.0166L92.8503 17.8589L92.6669 17.7481C92.5142 17.656 92.3508 17.5687 92.1785 17.4948C92.1076 17.4497 92.0443 17.4067 91.988 17.3659L91.7833 17.2177L91.5414 17.1446C91.3997 17.1019 91.23 17.0591 91.0438 17.0353C90.8828 16.9905 90.6839 16.9516 90.4668 16.9516H90.1315L76.2807 16.5651L76.2597 16.5645H76.2388H75.6333H75.6324H75.6316H75.6308H75.6299H75.6291H75.6283H75.6274H75.6266H75.6258H75.6249H75.6241H75.6233H75.6224H75.6216H75.6208H75.6199H75.6191H75.6183H75.6175H75.6166H75.6158H75.615H75.6141H75.6133H75.6125H75.6117H75.6108H75.61H75.6092H75.6083H75.6075H75.6067H75.6059H75.605H75.6042H75.6034H75.6026H75.6017H75.6009H75.6001H75.5993H75.5984H75.5976H75.5968H75.596H75.5952H75.5943H75.5935H75.5927H75.5919H75.591H75.5902H75.5894H75.5886H75.5878H75.5869H75.5861H75.5853H75.5845H75.5837H75.5829H75.582H75.5812H75.5804H75.5796H75.5788H75.5779H75.5771H75.5763H75.5755H75.5747H75.5739H75.5731H75.5722H75.5714H75.5706H75.5698H75.569H75.5682H75.5674H75.5665H75.5657H75.5649H75.5641H75.5633H75.5625H75.5617H75.5609H75.56H75.5592H75.5584H75.5576H75.5568H75.556H75.5552H75.5544H75.5536H75.5528H75.552H75.5511H75.5503H75.5495H75.5487H75.5479H75.5471H75.5463H75.5455H75.5447H75.5439H75.5431H75.5423H75.5415H75.5407H75.5399H75.5391H75.5383H75.5375H75.5367H75.5358H75.535H75.5342H75.5334H75.5326H75.5318H75.531H75.5302H75.5294H75.5286H75.5278H75.527H75.5262H75.5254H75.5246H75.5238H75.523H75.5222H75.5214H75.5206H75.5199H75.5191H75.5183H75.5175H75.5167H75.5159H75.5151H75.5143H75.5135H75.5127H75.5119H75.5111H75.5103H75.5095H75.5087H75.5079H75.5071H75.5063H75.5055H75.5048H75.504H75.5032H75.5024H75.5016H75.5008H75.5H75.4992H75.4984H75.4976H75.4969H75.4961H75.4953H75.4945H75.4937H75.4929H75.4921H75.4913H75.4905H75.4898H75.489H75.4882H75.4874H75.4866H75.4858H75.485H75.4843H75.4835H75.4827H75.4819H75.4811H75.4803H75.4796H75.4788H75.478H75.4772H75.4764H75.4756H75.4749H75.4741H75.4733H75.4725H75.4717H75.471H75.4702H75.4694H75.4686H75.4678H75.4671H75.4663H75.4655H75.4647H75.4639H75.4632H75.4624H75.4616H75.4608H75.4601H75.4593H75.4585H75.4577H75.457H75.4562H75.4554H75.4546H75.4539H75.4531H75.4523H75.4515H75.4508H75.45H75.4492H75.4484H75.4477H75.4469H75.4461H75.4454H75.4446H75.4438H75.443H75.4423H75.4415H75.4407H75.44H75.4392H75.4384H75.4377H75.4369H75.4361H75.4354H75.4346H75.4338H75.4331H75.4323H75.4315H75.4308H75.43H75.4292H75.4285H75.4277H75.4269H75.4262H75.4254H75.4246H75.4239H75.4231H75.4227C75.2072 16.5199 74.9913 16.5 74.7784 16.5C74.5572 16.5 74.3401 16.5251 74.1288 16.5728C73.9157 16.5886 73.7091 16.6259 73.5121 16.6769L73.4831 16.6844L73.4544 16.693C73.2364 16.7588 73.0281 16.8499 72.8321 16.966C72.6427 17.0394 72.463 17.1295 72.2933 17.232L72.1997 17.2886L72.1152 17.3581C71.7266 17.678 71.3904 18.0705 71.1609 18.546C70.8246 19.1714 70.6389 19.8575 70.5771 20.5774C70.5507 20.8656 70.5375 21.1672 70.5358 21.4809C70.5111 21.778 70.5 22.1031 70.5 22.4516C70.5 23.2451 70.617 24.0463 70.839 24.8508L70.8603 24.9277L70.8896 25.0019C71.1768 25.7303 71.5709 26.4093 72.133 26.9183L72.1464 26.9305L72.1602 26.9423C72.7759 27.4734 73.5211 27.9223 74.3789 28.0086L74.4538 28.0161H74.529C74.7075 28.0161 74.8873 28.0308 75.069 28.0607L75.19 28.0806H75.3127C75.459 28.0806 75.607 28.0939 75.7578 28.1211L75.8903 28.1452H76.0251H76.0911C76.9311 28.23 77.7059 28.2742 78.4117 28.2742H78.4156H78.4195H78.4234H78.4273H78.4312H78.4351H78.439H78.4429H78.4468H78.4507H78.4546H78.4586H78.4625H78.4664H78.4703H78.4743H78.4782H78.4821H78.4861H78.49H78.494H78.4979H78.5018H78.5058H78.5097H78.5137H78.5176H78.5216H78.5256H78.5295H78.5335H78.5374H78.5414H78.5454H78.5493H78.5533H78.5573H78.5613H78.5653H78.5692H78.5732H78.5772H78.5812H78.5852H78.5892H78.5932H78.5972H78.6012H78.6052H78.6092H78.6132H78.6172H78.6212H78.6252H78.6292H78.6332H78.6373H78.6413H78.6453H78.6493H78.6534H78.6574H78.6614H78.6655H78.6695H78.6735H78.6776H78.6816H78.6857H78.6897H78.6937H78.6978H78.7019H78.7059H78.71H78.714H78.7181H78.7222H78.7262H78.7303H78.7344H78.7384H78.7425H78.7466H78.7507H78.7547H78.7588H78.7629H78.767H78.7711H78.7752H78.7793H78.7834H78.7875H78.7916H78.7957H78.7998H78.8039H78.808H78.8121H78.8162H78.8204H78.8245H78.8286H78.8327H78.8368H78.841H78.8451H78.8492H78.8534H78.8575H78.8616H78.8658H78.8699H78.8741H78.8782H78.8824H78.8865H78.8907H78.8948H78.899H78.9031H78.9073H78.9115H78.9156H78.9198H78.924H78.9282H78.9323H78.9365H78.9407H78.9449H78.949H78.9532H78.9574H78.9616H78.9658H78.97H78.9742H78.9784H78.9826H78.9868H78.991H78.9952H78.9994H79.0036H79.0079H79.0121H79.0163H79.0205H79.0247H79.029H79.0332H79.0374H79.0416H79.0459H79.0501H79.0544H79.0586H79.0628H79.0671H79.0713H79.0756H79.0798H79.0841H79.0883H79.0926H79.0969H79.1011H79.1054H79.1097H79.1139H79.1182H79.1225H79.1267H79.131H79.1353H79.1396H79.1439H79.1482H79.1524H79.1567H79.161H79.1653H79.1696H79.1739H79.1782H79.1825H79.1868H79.1911H79.1954H79.1998H79.2041H79.2084H79.2127H79.217H79.2213H79.2257H79.23H79.2343H79.2387H79.243H79.2473H79.2517H79.256H79.2604H79.2647H79.269H79.2734H79.2777H79.2821H79.2865H79.2908H79.2952H79.2995H79.3039H79.3083H79.3126H79.317H79.3214H79.3258H79.3301H79.3345H79.3389H79.3433H79.3477H79.3521H79.3564H79.3608H79.3652H79.3696H79.374H79.3784H79.3828H79.3872H79.3916H79.3961H79.4005H79.4049H79.4093H79.4137H79.4181H79.4226H79.427H79.4314H79.4358H79.4403H79.4447H79.4492H79.4536H79.458H79.4625H79.4669H79.4714H79.4758H79.4803H79.4847H79.4892H79.4936H79.4981H79.5026H79.507H79.5115H79.516H79.5204H79.5249H79.5294H79.5339H79.5383H79.5428H79.5473H79.5518H79.5563H79.5608H79.5653H79.5698H79.5742H79.5787H79.5832H79.5878H79.5923H79.5968H79.6013H79.6058H79.6103H79.6148H79.6193H79.6239H79.6284H79.6329H79.6374H79.642H79.6465H79.651H79.6556H79.6601H79.6646H79.6692H79.6737H79.6783H79.6828H79.6874H79.6919H79.6965H79.701H79.7056H79.7102H79.7147H79.7193H79.7239H79.7284H79.733H79.7376H79.7422H79.7467H79.7513H79.7559H79.7605H79.7651H79.7697H79.7743H79.7789H79.7835H79.7881H79.7927H79.7973H79.8019H79.8065H79.8111H79.8157H79.8203H79.8249H79.8296H79.8342H79.8388H79.8434H79.8481H79.8527H79.8573H79.8619H79.8666H79.8712H79.8759H79.8805H79.8852H79.8898H79.8944H79.8991H79.9038H79.9084H79.9131H79.9177H79.9224H79.9271H79.9317H79.9364H79.9411H79.9457H79.9504H79.9551H79.9598H79.9644H79.9691H79.9738H79.9785H79.9832H79.9879H79.9926H79.9973H80.002H80.0067H80.0114H80.0161H80.0208H80.0255H80.0302H80.0349H80.0397H80.0444H80.0491H80.0538H80.0585H80.0633H80.068H80.0727H80.0775H80.0822H80.0869H80.0917H80.0964H80.1012H80.1059H80.1107H80.1154H80.1202H80.1249H80.1297H80.1344H80.1392H80.144H80.1487H80.1535H80.1583H80.1631H80.1678H80.1726H80.1774H80.1822H80.187H80.1917H80.1965H80.2013H80.2061H80.2109H80.2157H80.2205H80.2253H80.2301H80.2349H80.2397H80.2445H80.2493H80.2542H80.259H80.2638H80.2686H80.2734H80.2783H80.2831H80.2879H80.2928H80.2976H80.3024H80.3073H80.3121H80.3169H80.3218H80.3266H80.3315H80.3363H80.3412H80.346H80.3509H80.3558H80.3606H80.3655H80.3704H80.3752H80.3801H80.385H80.3898H80.3947H80.3996H80.4045H80.4094H80.4143H80.4191H80.424H80.4289H80.4338H80.4387H80.4436H80.4485H80.4534H80.4583H80.4632H80.4681H80.4731H80.478H80.4829H80.4878H80.4927H80.4977H80.5026H80.5075H80.5124H80.5174H80.5223H80.5272H80.5322H80.5371H80.5421H80.547H80.552H80.5569H80.5619H80.5668H80.5718H80.5767H80.5817H80.5866H80.5916H80.5966H80.6015H80.6065H80.6115H80.6165H80.6214H80.6264H80.6314H80.6364H80.6414H80.6464H80.6514H80.6563H80.6613H80.6663H80.6713H80.6763H80.6813H80.6863H80.6914H80.6964H80.7014H80.7064H80.7114H80.7164H80.7214H80.7264H80.7314H80.7364H80.7414H80.7464H80.7514H80.7564H80.7614H80.7664H80.7714H80.7764H80.7814H80.7864H80.7914H80.7964H80.8014H80.8064H80.8114H80.8164H80.8214H80.8264H80.8314H80.8364H80.8414H80.8464H80.8514H80.8564H80.8614H80.8663H80.8713H80.8763H80.8813H80.8863H80.8913H80.8963H80.9013H80.9062H80.9112H80.9162H80.9212H80.9262H80.9312H80.9361H80.9411H80.9461H80.9511H80.9561H80.9611H80.966H80.971H80.976H80.981H80.9859H80.9909H80.9959H81.0009H81.0059H81.0108H81.0158H81.0208H81.0257H81.0307H81.0357H81.0407H81.0456H81.0506H81.0556H81.0605H81.0655H81.0705H81.0754H81.0804H81.0854H81.0903H81.0953H81.1003H81.1052H81.1102H81.1152H81.1201H81.1251H81.1301H81.135H81.14H81.1449H81.1499H81.1549H81.1598H81.1648H81.1697H81.1747H81.1796H81.1846H81.1895H81.1945H81.1995H81.2044H81.2094H81.2143H81.2193H81.2242H81.2292H81.2341H81.2391H81.244H81.249H81.2539H81.2589H81.2638H81.2688H81.2737H81.2786H81.2836H81.2885H81.2935H81.2984H81.3034H81.3083H81.3132H81.3182H81.3231H81.3281H81.333H81.3379H81.3429H81.3478H81.3528H81.3577H81.3626H81.3676H81.3725H81.3774H81.3824H81.3873H81.3922H81.3972H81.4021H81.407H81.412H81.4169H81.4218H81.4268H81.4317H81.4366H81.4415H81.4465H81.4514H81.4563H81.4612H81.4662H81.4711H81.476H81.4809H81.4859H81.4908H81.4957H81.5006H81.5055H81.5105H81.5154H81.5203H81.5252H81.5301H81.5351H81.54H81.5449H81.5498H81.5547H81.5596H81.5645H81.5695H81.5744H81.5793H81.5842H81.5891H81.594H81.5989H81.6038H81.6087H81.6136H81.6186H81.6235H81.6284H81.6333H81.6382H81.6431H81.648H81.6529H81.6578H81.6627H81.6676H81.6725H81.6774H81.6823H81.6872H81.6921H81.697H81.7019H81.7068H81.7117H81.7166H81.7215H81.7264H81.7313H81.7362H81.7411H81.746H81.7509H81.7558H81.7606H81.7655H81.7704H81.7753H81.7802H81.7851H81.79H81.7949H81.7998H81.8046H81.8095H81.8144H81.8193H81.8242H81.8291H81.834H81.8388H81.8437H81.8486H81.8535H81.8584H81.8632H81.8681H81.873H81.8779H81.8828H81.8876H81.8925H81.8974H81.9023H81.9072H81.912H81.9169H81.9218H81.9266H81.9315H81.9364H81.9413H81.9461H81.951H81.9559H81.9607H81.9656H81.9705H81.9754H81.9802H81.9851H81.99H81.9948H81.9997H82.0045H82.0094H82.0143H82.0191H82.024H82.0289H82.0337H82.0386H82.0434H82.0483H82.0532H82.058H82.0629H82.0677H82.0726H82.0775H82.0823H82.0872H82.092H82.0969H82.1017H82.1066H82.1114H82.1163H82.1211H82.126H82.1308H82.1357H82.1405H82.1454H82.1502H82.1551H82.1599H82.1648H82.1696H82.1745H82.1793H82.1842H82.189H82.1939H82.1987H82.2035H82.2084H82.2132H82.2181H82.2229H82.2277H82.2326H82.2374H82.2423H82.2471H82.2519H82.2568H82.2616H82.2664H82.2713H82.2761H82.2809H82.2858H82.2906H82.2954H82.3003H82.3051H82.3099H82.3148H82.3196H82.3244H82.3293H82.3341H82.3389H82.3437H82.3486H82.3534H82.3582H82.363H82.3679H82.3727H82.3775H82.3823H82.3872H82.392H82.3968H82.4016H82.4064H82.4113H82.4161H82.4209H82.4257H82.4305H82.4353H82.4402H82.445H82.4498H82.4546H82.4594H82.4642H82.469H82.4739H82.4787H82.4835H82.4883H82.4931H82.4979H82.5027H82.5075H82.5123H82.5171H82.5219H82.5267H82.5316H82.5364H82.5412H82.546H82.5508H82.5556H82.5604H82.5652H82.57H82.5748H82.5796H82.5844H82.5892H82.594H82.5988H82.6036H82.6084H82.6132H82.618H82.6228H82.6276H82.6323H82.6371H82.6419H82.6467H82.6515H82.6563H82.6611H82.6659H82.6707H82.6755H82.6803H82.685H82.6898H82.6946H82.6994H82.7042H82.709H82.7138H82.7185H82.7233H82.7281H82.7329H82.7377H82.7425H82.7472H82.752H82.7568H82.7616H82.7664H82.7711H82.7759H82.7807H82.7855H82.7902H82.795H82.7998H82.8046H82.8093H82.8141H82.8189H82.8237H82.8284H82.8332H82.838H82.8428H82.8475H82.8523H82.8571H82.8618H82.8666H82.8714H82.8761H82.8809H82.8857H82.8904H82.8952H82.9H82.9047H82.9095H82.9142H82.919H82.9238H82.9285H82.9333H82.938H82.9428H82.9476H82.9523H82.9571H82.9618H82.9666H82.9713H82.9761H82.9809H82.9856H82.9904H82.9951H82.9999H83.0046H83.0094H83.0141H83.0189H83.0236H83.0284H83.0331H83.0379H83.0426H83.0474H83.0521H83.0568H83.0616H83.0663H83.0711H83.0758H83.0806H83.0853H83.0901H83.0948H83.0995H83.1043H83.109H83.1138H83.1185H83.1232H83.128H83.1327H83.1374H83.1422H83.1469H83.1516H83.1564H83.1611H83.1659H83.1706H83.1753H83.18H83.1848C83.9532 28.2742 84.6969 28.2943 85.4161 28.3344L86.0017 28.3952L86.0619 28.4014L86.1223 28.4028L88.9363 28.4673Z" fill="white" stroke="black" stroke-width="3"/>
<mask id="mask0_12_65" style="mask-type:alpha" maskUnits="userSpaceOnUse" x="76" y="19" width="13" height="46">
<path d="M76.0466 56.1739L76.1398 50.0099L76.233 48.6497C76.2951 46.9851 76.3262 45.2686 76.3262 43.5C76.3262 41.7314 76.3262 39.9108 76.3262 38.0382C76.3262 36.1656 76.3262 34.5011 76.3262 33.0446C76.3262 31.5881 76.3883 29.9496 76.5125 28.129V27.8169C76.5747 27.2967 76.6057 26.7765 76.6057 26.2564C76.6679 25.6842 76.6989 25.112 76.6989 24.5398C76.761 23.6035 77.1027 22.5892 77.724 21.4968C78.1589 20.7686 78.8112 20.1444 79.681 19.6242C80.675 19.2081 81.638 19 82.5699 19C83.0669 19 83.5018 19.026 83.8746 19.078C84.3094 19.078 84.7133 19.104 85.086 19.156C85.8937 19.2601 86.6081 19.5722 87.2294 20.0924C87.6022 20.3524 87.9439 20.7686 88.2545 21.3408C88.3787 21.6529 88.4719 21.965 88.5341 22.2771C88.6583 22.5372 88.7515 22.8232 88.8136 23.1353C88.8757 23.4995 88.9068 23.8376 88.9068 24.1497C88.9689 24.4618 89 24.7739 89 25.086C89 25.4501 88.9689 25.7882 88.9068 26.1003C88.9068 26.3604 88.9068 26.6465 88.9068 26.9586V28.285L88.3477 58.6708V59.451C88.3477 59.6071 88.3166 59.8151 88.2545 60.0752C88.2545 60.2833 88.2234 60.5434 88.1613 60.8555C88.037 61.1156 87.9128 61.4017 87.7885 61.7138C87.7264 61.9738 87.6332 62.2599 87.509 62.572C87.3226 62.8321 87.1051 63.0922 86.8566 63.3523C86.6703 63.5604 86.4217 63.7684 86.1111 63.9765C85.6141 64.3926 84.8065 64.6787 83.6882 64.8348C82.0108 65.1469 80.4265 65.0168 78.9355 64.4446C78.19 64.0285 77.6619 63.5083 77.3513 62.8841C77.1649 62.7281 77.0717 62.572 77.0717 62.416C77.0096 62.312 76.9474 62.2339 76.8853 62.1819C76.8232 62.1299 76.761 62.0519 76.6989 61.9478C76.5747 61.6877 76.4815 61.4277 76.4194 61.1676C76.3572 60.8555 76.3262 60.5434 76.3262 60.2313C76.264 59.9712 76.2019 59.7111 76.1398 59.451C76.1398 59.1909 76.1087 58.9308 76.0466 58.6708C75.9845 58.2546 75.9845 57.8125 76.0466 57.3443V56.1739Z" fill="white"/>
</mask>
<g mask="url(#mask0_12_65)">
<path d="M90.7845 43.9509C91.0326 43.8311 91.272 43.7108 91.5 43.5926V66.5H73.5V42.3459C73.8469 42.3156 74.2471 42.286 74.6807 42.2632C76.1392 42.1868 77.8604 42.1958 79.1995 42.4696C79.8862 42.61 80.4011 43.0282 81.2823 43.754L81.2859 43.757C82.078 44.4094 83.2178 45.3483 84.8679 45.4942C85.8962 45.5851 86.9842 45.3732 87.9568 45.08C88.9488 44.781 89.931 44.3629 90.7845 43.9509Z" fill="#79E619" stroke="black" stroke-width="3"/>
</g>
<mask id="path-5-outside-1_12_65" maskUnits="userSpaceOnUse" x="23" y="4.6747" width="160" height="90" fill="black">
<rect fill="white" x="23" y="4.6747" width="160" height="90"/>
<path d="M63.2332 75.5499C63.6434 76.3217 63.6691 77.0935 63.3101 77.8653C63.0537 78.6885 62.6177 79.306 62.0023 79.7176C61.6946 79.9749 61.4125 80.2064 61.1561 80.4122C60.8997 80.5666 60.6176 80.6952 60.3099 80.7981C59.7458 81.1068 59.079 81.2098 58.3098 81.1068C58.0021 81.1068 57.72 81.0554 57.4636 80.9525C57.2071 80.8496 56.9507 80.7209 56.6943 80.5666C56.4379 80.4122 56.1558 80.2579 55.8481 80.1035C55.5916 79.8977 55.3352 79.6919 55.0788 79.4861C54.7711 79.2288 54.489 78.9972 54.2326 78.7914C53.9762 78.5856 53.7454 78.3541 53.5402 78.0968C53.2838 77.8395 53.053 77.5823 52.8479 77.325C52.6427 77.0677 52.4376 76.8362 52.2325 76.6304L51.3093 75.627L36.5391 60.1137L36.7699 75.627V76.3217C36.7699 76.5275 36.7443 76.759 36.693 77.0163C36.6417 77.2221 36.5904 77.4536 36.5391 77.7109C36.3853 78.3798 36.2058 78.9715 36.0006 79.4861C35.8981 79.7948 35.7442 80.052 35.5391 80.2579C35.3852 80.4637 35.2057 80.6695 35.0006 80.8753C34.4364 81.3898 33.7697 81.6728 33.0004 81.7243C32.2312 81.9816 31.5132 82.0588 30.8465 81.9558C30.231 81.9044 29.59 81.7243 28.9233 81.4156C28.4104 81.1068 27.9488 80.5923 27.5386 79.872C27.436 79.6661 27.3591 79.5375 27.3078 79.4861C27.3078 79.4346 27.2565 79.2545 27.1539 78.9458C26.8462 78.4313 26.6924 77.9167 26.6924 77.4022C26.6411 77.0935 26.5898 76.8105 26.5385 76.5532C26.5385 76.2959 26.5129 76.0129 26.4616 75.7042C26.4103 75.4984 26.3846 75.2926 26.3846 75.0868C26.3846 74.881 26.3846 74.6751 26.3846 74.4693C26.4359 74.2121 26.4616 74.0062 26.4616 73.8519C26.4616 73.6461 26.4616 73.4145 26.4616 73.1572L26.3846 67.06L26.3077 55.7145C26.3077 52.4214 26.2308 48.8712 26.0769 45.0636C26.0256 43.2113 26 41.5647 26 40.124C26 38.6833 26.0256 37.0625 26.0769 35.2617V34.9529C26.1795 34.3869 26.2308 33.8467 26.2308 33.3321C26.2308 32.7661 26.2564 32.2259 26.3077 31.7113C26.3077 30.6823 26.5385 29.6532 27.0001 28.6241C27.3078 27.8523 27.8463 27.2349 28.6156 26.7718C29.0258 26.5145 29.4105 26.3601 29.7695 26.3087C30.1798 26.2058 30.6157 26.1029 31.0772 26C31.4362 26 31.7696 26.0257 32.0773 26.0772C32.4363 26.1286 32.7697 26.1801 33.0774 26.2315C33.7441 26.3344 34.3595 26.6174 34.9236 27.0805C35.0775 27.2349 35.2057 27.415 35.3083 27.6208C35.4621 27.8266 35.5904 28.0838 35.6929 28.3926C35.9494 28.8042 36.1289 29.3959 36.2314 30.1677C36.2827 30.4764 36.3084 30.7852 36.3084 31.0939C36.3596 31.4026 36.3853 31.7371 36.3853 32.0972V35.2617L36.4622 44.6777C37.2828 43.9573 38.0777 43.2113 38.847 42.4395C39.6675 41.6677 40.4625 40.8444 41.2317 39.9697C42.6165 38.529 43.9755 37.1397 45.3089 35.8019C46.6936 34.4127 48.0783 33.0491 49.463 31.7113L49.6938 31.4798C50.1041 31.0682 50.5144 30.6823 50.9247 30.3221C51.3862 29.9105 51.8222 29.5246 52.2325 29.1644C53.0017 28.2897 53.9505 27.6722 55.0788 27.312C55.7968 26.849 56.643 26.6689 57.6174 26.7718C58.079 26.8232 58.4893 26.9261 58.8483 27.0805C59.2585 27.2349 59.6432 27.4407 60.0022 27.6979C60.2586 27.9552 60.515 28.1868 60.7715 28.3926C61.0279 28.5469 61.233 28.7527 61.3869 29.01C61.7972 29.3702 62.0536 29.9105 62.1562 30.6308C62.1562 31.1968 62.0536 31.7113 61.8485 32.1744C61.6946 32.4317 61.5407 32.689 61.3869 32.9462C61.233 33.2035 61.0535 33.4608 60.8484 33.718C60.592 34.0268 60.3612 34.3097 60.156 34.567C59.9509 34.8243 59.7201 35.0816 59.4637 35.3388C59.2585 35.5961 59.0278 35.8276 58.7713 36.0335C58.5662 36.2393 58.361 36.4708 58.1559 36.7281L57.1558 37.7314L42.7703 52.4729C43.5396 53.2447 44.3345 54.0679 45.1551 54.9427C46.0269 55.7659 46.8475 56.5892 47.6168 57.4124C48.3861 58.1842 49.104 58.9303 49.7708 59.6507C50.4375 60.3196 51.0016 60.8855 51.4632 61.3486C52.8479 62.7893 54.1813 64.23 55.4634 65.6707C56.7456 67.06 58.0021 68.475 59.2329 69.9157L59.4637 70.1472C59.874 70.5588 60.2586 70.9962 60.6176 71.4593C60.9766 71.8709 61.31 72.2825 61.6177 72.6942C62.3869 73.5689 62.9254 74.5208 63.2332 75.5499Z"/>
<path d="M133.743 28.8557C134.307 29.5246 134.589 30.2192 134.589 30.9395C134.589 31.2482 134.563 31.5827 134.512 31.9429C134.512 32.2516 134.487 32.5346 134.435 32.7919C134.281 33.3579 133.948 33.8981 133.435 34.4127C133.025 34.7214 132.461 34.9529 131.743 35.1073C131.384 35.2102 131.025 35.2874 130.666 35.3388C130.307 35.3903 129.922 35.4675 129.512 35.5704C129.153 35.6218 128.794 35.6476 128.435 35.6476C128.076 35.6476 127.691 35.6476 127.281 35.6476H123.358C122.434 35.699 121.511 35.7247 120.588 35.7247C119.716 35.7247 113.845 35.7247 112.973 35.7247C113.024 37.3198 113.05 39.0435 113.05 40.8958C113.05 42.6967 113.024 44.8063 112.973 47.2247C112.973 49.643 112.947 52.4472 112.896 55.6373C112.896 58.8274 112.896 62.5321 112.896 66.7513V82.617C112.896 83.1315 112.921 83.5174 112.973 83.7747C112.973 83.9805 112.973 84.1863 112.973 84.3921C112.973 84.5465 112.947 84.7523 112.896 85.0096C112.793 85.4727 112.716 86.0129 112.665 86.6304C112.665 86.8876 112.639 87.1449 112.588 87.4022C112.537 87.608 112.46 87.8395 112.357 88.0968C112.152 88.3026 112.05 88.457 112.05 88.5599L111.819 89.023C111.562 89.5375 111.075 90.0263 110.357 90.4894C109.229 91.0554 107.972 91.184 106.588 90.8753C105.716 90.7724 105.049 90.5408 104.588 90.1807C104.126 89.7176 103.793 89.2545 103.587 88.7914C103.28 88.2254 103.1 87.6852 103.049 87.1706C102.895 86.7076 102.818 86.2188 102.818 85.7042V36.0335C102.51 36.0335 106.869 36.0335 105.895 36.0335C104.921 36.0335 81.8692 36.0335 80.7409 36.0335C79.6639 35.982 78.6382 35.9305 77.6638 35.8791C76.6894 35.8276 76.0227 35.7762 75.6637 35.7247C75.3559 35.6733 74.8687 35.5961 74.202 35.4932C73.5866 35.3903 73.0737 35.2874 72.6635 35.1845C71.5865 34.8757 70.7403 34.3869 70.1248 33.718C69.5607 33.0491 69.2786 32.3031 69.2786 31.4798C69.2786 31.1711 69.2786 30.8623 69.2786 30.5536C69.2786 30.2449 69.3299 29.9619 69.4325 29.7046C69.5863 29.0872 69.9966 28.5727 70.6633 28.161C70.8685 28.0067 71.1762 27.8266 71.5865 27.6208C72.048 27.3635 72.484 27.1834 72.8942 27.0805C73.5097 26.8747 74.2789 26.7203 75.2021 26.6174C75.6124 26.566 76.0227 26.5402 76.4329 26.5402C76.8432 26.5402 77.2791 26.5402 77.7407 26.5402C79.5357 26.5402 103.228 26.5402 104.818 26.5402C106.459 26.5402 108.177 26.5145 109.972 26.4631C112.947 26.4116 115.896 26.4116 118.819 26.4631C121.793 26.4631 124.742 26.5145 127.666 26.6174C128.332 26.6689 128.973 26.7461 129.589 26.849C130.204 26.9519 130.82 27.132 131.435 27.3892C131.897 27.5436 132.333 27.7494 132.743 28.0067C133.153 28.2125 133.486 28.4955 133.743 28.8557Z"/>
<path d="M179.231 58.6473C179.487 59.3677 179.667 60.1909 179.769 61.1171C179.923 61.9918 180 62.8922 180 63.8184C180 64.7446 179.923 65.6707 179.769 66.5969C179.667 67.4716 179.513 68.2434 179.308 68.9123C178.487 71.7937 176.846 74.2121 174.384 76.1673C171.923 78.0711 169.102 79.4603 165.922 80.335C162.794 81.2098 159.537 81.5185 156.152 81.2612C152.819 81.0039 149.844 80.1549 147.229 78.7142C145.588 77.7881 144.177 76.6561 142.998 75.3183C141.818 73.9805 140.818 72.4883 139.997 70.8418C139.69 70.2758 139.485 69.6327 139.382 68.9123C139.331 68.1405 139.408 67.4202 139.613 66.7513C139.818 66.0309 140.151 65.4135 140.613 64.8989C141.074 64.3329 141.715 63.947 142.536 63.7412C143.049 63.6383 143.613 63.5869 144.228 63.5869C144.895 63.5869 145.536 63.6898 146.152 63.8956C146.767 64.0499 147.331 64.3329 147.844 64.7446C148.357 65.1047 148.767 65.6193 149.075 66.2882C149.639 67.3687 150.434 68.3721 151.46 69.2982C152.537 70.1729 153.665 70.8933 154.845 71.4593C156.537 72.0253 158.229 72.2568 159.922 72.1539C161.665 72.051 163.23 71.6651 164.614 70.9962C166.05 70.3273 167.204 69.4269 168.076 68.2949C168.948 67.1114 169.384 65.7736 169.384 64.2815C169.384 63.0466 169.204 62.0433 168.845 61.2715C168.486 60.4482 167.974 59.7793 167.307 59.2648C166.691 58.6988 165.922 58.2357 164.999 57.8755C164.127 57.5153 163.153 57.2066 162.076 56.9493C160.845 56.6921 159.588 56.512 158.306 56.4091C157.075 56.3062 155.819 56.1775 154.537 56.0232C153.255 55.8688 151.998 55.663 150.767 55.4057C149.537 55.1485 148.331 54.7626 147.152 54.248C144.793 53.2704 142.998 51.7783 141.767 49.7716C140.536 47.7649 139.792 45.6039 139.536 43.2884C139.331 40.973 139.613 38.6833 140.382 36.4194C141.151 34.104 142.382 32.123 144.075 30.4764C145.716 28.9843 147.665 27.9295 149.921 27.312C152.229 26.6431 154.768 26.2572 157.537 26.1543C159.076 26.1029 160.614 26.1543 162.153 26.3087C163.743 26.4631 165.255 26.7203 166.691 27.0805C168.179 27.4407 169.538 27.9038 170.769 28.4697C172.051 29.0357 173.153 29.7046 174.077 30.4764C174.743 30.991 175.41 31.6856 176.077 32.5603C176.743 33.3836 177.256 34.284 177.615 35.2617C177.974 36.1878 178.077 37.0883 177.923 37.963C177.82 38.8377 177.282 39.5838 176.307 40.2012C175.487 40.7158 174.692 40.9473 173.923 40.8958C173.205 40.7929 172.512 40.5614 171.846 40.2012C171.179 39.7896 170.538 39.3265 169.922 38.812C169.307 38.2974 168.743 37.8343 168.23 37.4227C166.845 36.3936 165.127 35.699 163.076 35.3388C161.024 34.9787 159.101 34.9015 157.306 35.1073C156.178 35.2616 155.127 35.5189 154.152 35.8791C153.178 36.2393 152.332 36.7281 151.614 37.3455C150.947 37.963 150.408 38.7348 149.998 39.661C149.639 40.5357 149.511 41.539 149.613 42.671C149.665 43.4943 149.896 44.1889 150.306 44.7549C150.767 45.3209 151.306 45.784 151.921 46.1441C152.588 46.5043 153.306 46.7873 154.075 46.9931C154.845 47.1989 155.614 47.3533 156.383 47.4562C158.691 47.7649 160.999 47.9965 163.307 48.1508C165.614 48.3052 167.871 48.8197 170.076 49.6944C172.333 50.5691 174.256 51.7525 175.846 53.2447C177.436 54.7368 178.564 56.5377 179.231 58.6473Z"/>
<path d="M102.818 44.4461L102.895 38.3488L102.972 37.0033C103.023 35.3568 103.049 33.6588 103.049 31.9094C103.049 30.16 103.049 28.3591 103.049 26.5067C103.049 24.6544 103.049 23.0079 103.049 21.5672C103.049 20.1265 103.1 18.5057 103.203 16.7048V16.3961C103.254 15.8816 103.28 15.367 103.28 14.8525C103.331 14.2865 103.357 13.7205 103.357 13.1545C103.408 12.2283 103.69 11.225 104.203 10.1445C104.562 9.42412 105.1 8.80668 105.818 8.29214C106.639 7.88051 107.434 7.6747 108.203 7.6747C108.613 7.6747 108.972 7.70042 109.28 7.75188C109.639 7.75188 109.972 7.7776 110.28 7.82906C110.947 7.93197 111.537 8.24069 112.05 8.75523C112.357 9.01249 112.639 9.42412 112.896 9.99011C112.998 10.2988 113.075 10.6076 113.127 10.9163C113.229 11.1735 113.306 11.4565 113.357 11.7653C113.409 12.1254 113.434 12.4599 113.434 12.7686C113.486 13.0773 113.511 13.3861 113.511 13.6948C113.511 14.055 113.486 14.3894 113.434 14.6981C113.434 14.9554 113.434 15.2384 113.434 15.5471V16.8592L112.973 46.9159V47.6877C112.973 47.842 112.947 48.0479 112.896 48.3051C112.896 48.5109 112.87 48.7682 112.819 49.0769C112.716 49.3342 112.614 49.6172 112.511 49.9259C112.46 50.1832 112.383 50.4662 112.28 50.7749C112.126 51.0322 111.947 51.2894 111.742 51.5467C111.588 51.7525 111.383 51.9583 111.126 52.1642C110.716 52.5758 110.049 52.8588 109.126 53.0131C107.742 53.3219 106.434 53.1932 105.203 52.6272C104.587 52.2156 104.152 51.7011 103.895 51.0836C103.741 50.9293 103.664 50.7749 103.664 50.6205C103.613 50.5176 103.562 50.4405 103.51 50.389C103.459 50.3376 103.408 50.2604 103.357 50.1575C103.254 49.9002 103.177 49.6429 103.126 49.3857C103.075 49.0769 103.049 48.7682 103.049 48.4595C102.998 48.2022 102.946 47.945 102.895 47.6877C102.895 47.4304 102.869 47.1731 102.818 46.9159C102.767 46.5042 102.767 46.0669 102.818 45.6038V44.4461Z"/>
</mask>
<path d="M63.2332 75.5499C63.6434 76.3217 63.6691 77.0935 63.3101 77.8653C63.0537 78.6885 62.6177 79.306 62.0023 79.7176C61.6946 79.9749 61.4125 80.2064 61.1561 80.4122C60.8997 80.5666 60.6176 80.6952 60.3099 80.7981C59.7458 81.1068 59.079 81.2098 58.3098 81.1068C58.0021 81.1068 57.72 81.0554 57.4636 80.9525C57.2071 80.8496 56.9507 80.7209 56.6943 80.5666C56.4379 80.4122 56.1558 80.2579 55.8481 80.1035C55.5916 79.8977 55.3352 79.6919 55.0788 79.4861C54.7711 79.2288 54.489 78.9972 54.2326 78.7914C53.9762 78.5856 53.7454 78.3541 53.5402 78.0968C53.2838 77.8395 53.053 77.5823 52.8479 77.325C52.6427 77.0677 52.4376 76.8362 52.2325 76.6304L51.3093 75.627L36.5391 60.1137L36.7699 75.627V76.3217C36.7699 76.5275 36.7443 76.759 36.693 77.0163C36.6417 77.2221 36.5904 77.4536 36.5391 77.7109C36.3853 78.3798 36.2058 78.9715 36.0006 79.4861C35.8981 79.7948 35.7442 80.052 35.5391 80.2579C35.3852 80.4637 35.2057 80.6695 35.0006 80.8753C34.4364 81.3898 33.7697 81.6728 33.0004 81.7243C32.2312 81.9816 31.5132 82.0588 30.8465 81.9558C30.231 81.9044 29.59 81.7243 28.9233 81.4156C28.4104 81.1068 27.9488 80.5923 27.5386 79.872C27.436 79.6661 27.3591 79.5375 27.3078 79.4861C27.3078 79.4346 27.2565 79.2545 27.1539 78.9458C26.8462 78.4313 26.6924 77.9167 26.6924 77.4022C26.6411 77.0935 26.5898 76.8105 26.5385 76.5532C26.5385 76.2959 26.5129 76.0129 26.4616 75.7042C26.4103 75.4984 26.3846 75.2926 26.3846 75.0868C26.3846 74.881 26.3846 74.6751 26.3846 74.4693C26.4359 74.2121 26.4616 74.0062 26.4616 73.8519C26.4616 73.6461 26.4616 73.4145 26.4616 73.1572L26.3846 67.06L26.3077 55.7145C26.3077 52.4214 26.2308 48.8712 26.0769 45.0636C26.0256 43.2113 26 41.5647 26 40.124C26 38.6833 26.0256 37.0625 26.0769 35.2617V34.9529C26.1795 34.3869 26.2308 33.8467 26.2308 33.3321C26.2308 32.7661 26.2564 32.2259 26.3077 31.7113C26.3077 30.6823 26.5385 29.6532 27.0001 28.6241C27.3078 27.8523 27.8463 27.2349 28.6156 26.7718C29.0258 26.5145 29.4105 26.3601 29.7695 26.3087C30.1798 26.2058 30.6157 26.1029 31.0772 26C31.4362 26 31.7696 26.0257 32.0773 26.0772C32.4363 26.1286 32.7697 26.1801 33.0774 26.2315C33.7441 26.3344 34.3595 26.6174 34.9236 27.0805C35.0775 27.2349 35.2057 27.415 35.3083 27.6208C35.4621 27.8266 35.5904 28.0838 35.6929 28.3926C35.9494 28.8042 36.1289 29.3959 36.2314 30.1677C36.2827 30.4764 36.3084 30.7852 36.3084 31.0939C36.3596 31.4026 36.3853 31.7371 36.3853 32.0972V35.2617L36.4622 44.6777C37.2828 43.9573 38.0777 43.2113 38.847 42.4395C39.6675 41.6677 40.4625 40.8444 41.2317 39.9697C42.6165 38.529 43.9755 37.1397 45.3089 35.8019C46.6936 34.4127 48.0783 33.0491 49.463 31.7113L49.6938 31.4798C50.1041 31.0682 50.5144 30.6823 50.9247 30.3221C51.3862 29.9105 51.8222 29.5246 52.2325 29.1644C53.0017 28.2897 53.9505 27.6722 55.0788 27.312C55.7968 26.849 56.643 26.6689 57.6174 26.7718C58.079 26.8232 58.4893 26.9261 58.8483 27.0805C59.2585 27.2349 59.6432 27.4407 60.0022 27.6979C60.2586 27.9552 60.515 28.1868 60.7715 28.3926C61.0279 28.5469 61.233 28.7527 61.3869 29.01C61.7972 29.3702 62.0536 29.9105 62.1562 30.6308C62.1562 31.1968 62.0536 31.7113 61.8485 32.1744C61.6946 32.4317 61.5407 32.689 61.3869 32.9462C61.233 33.2035 61.0535 33.4608 60.8484 33.718C60.592 34.0268 60.3612 34.3097 60.156 34.567C59.9509 34.8243 59.7201 35.0816 59.4637 35.3388C59.2585 35.5961 59.0278 35.8276 58.7713 36.0335C58.5662 36.2393 58.361 36.4708 58.1559 36.7281L57.1558 37.7314L42.7703 52.4729C43.5396 53.2447 44.3345 54.0679 45.1551 54.9427C46.0269 55.7659 46.8475 56.5892 47.6168 57.4124C48.3861 58.1842 49.104 58.9303 49.7708 59.6507C50.4375 60.3196 51.0016 60.8855 51.4632 61.3486C52.8479 62.7893 54.1813 64.23 55.4634 65.6707C56.7456 67.06 58.0021 68.475 59.2329 69.9157L59.4637 70.1472C59.874 70.5588 60.2586 70.9962 60.6176 71.4593C60.9766 71.8709 61.31 72.2825 61.6177 72.6942C62.3869 73.5689 62.9254 74.5208 63.2332 75.5499Z" fill="#F18420"/>
<path d="M133.743 28.8557C134.307 29.5246 134.589 30.2192 134.589 30.9395C134.589 31.2482 134.563 31.5827 134.512 31.9429C134.512 32.2516 134.487 32.5346 134.435 32.7919C134.281 33.3579 133.948 33.8981 133.435 34.4127C133.025 34.7214 132.461 34.9529 131.743 35.1073C131.384 35.2102 131.025 35.2874 130.666 35.3388C130.307 35.3903 129.922 35.4675 129.512 35.5704C129.153 35.6218 128.794 35.6476 128.435 35.6476C128.076 35.6476 127.691 35.6476 127.281 35.6476H123.358C122.434 35.699 121.511 35.7247 120.588 35.7247C119.716 35.7247 113.845 35.7247 112.973 35.7247C113.024 37.3198 113.05 39.0435 113.05 40.8958C113.05 42.6967 113.024 44.8063 112.973 47.2247C112.973 49.643 112.947 52.4472 112.896 55.6373C112.896 58.8274 112.896 62.5321 112.896 66.7513V82.617C112.896 83.1315 112.921 83.5174 112.973 83.7747C112.973 83.9805 112.973 84.1863 112.973 84.3921C112.973 84.5465 112.947 84.7523 112.896 85.0096C112.793 85.4727 112.716 86.0129 112.665 86.6304C112.665 86.8876 112.639 87.1449 112.588 87.4022C112.537 87.608 112.46 87.8395 112.357 88.0968C112.152 88.3026 112.05 88.457 112.05 88.5599L111.819 89.023C111.562 89.5375 111.075 90.0263 110.357 90.4894C109.229 91.0554 107.972 91.184 106.588 90.8753C105.716 90.7724 105.049 90.5408 104.588 90.1807C104.126 89.7176 103.793 89.2545 103.587 88.7914C103.28 88.2254 103.1 87.6852 103.049 87.1706C102.895 86.7076 102.818 86.2188 102.818 85.7042V36.0335C102.51 36.0335 106.869 36.0335 105.895 36.0335C104.921 36.0335 81.8692 36.0335 80.7409 36.0335C79.6639 35.982 78.6382 35.9305 77.6638 35.8791C76.6894 35.8276 76.0227 35.7762 75.6637 35.7247C75.3559 35.6733 74.8687 35.5961 74.202 35.4932C73.5866 35.3903 73.0737 35.2874 72.6635 35.1845C71.5865 34.8757 70.7403 34.3869 70.1248 33.718C69.5607 33.0491 69.2786 32.3031 69.2786 31.4798C69.2786 31.1711 69.2786 30.8623 69.2786 30.5536C69.2786 30.2449 69.3299 29.9619 69.4325 29.7046C69.5863 29.0872 69.9966 28.5727 70.6633 28.161C70.8685 28.0067 71.1762 27.8266 71.5865 27.6208C72.048 27.3635 72.484 27.1834 72.8942 27.0805C73.5097 26.8747 74.2789 26.7203 75.2021 26.6174C75.6124 26.566 76.0227 26.5402 76.4329 26.5402C76.8432 26.5402 77.2791 26.5402 77.7407 26.5402C79.5357 26.5402 103.228 26.5402 104.818 26.5402C106.459 26.5402 108.177 26.5145 109.972 26.4631C112.947 26.4116 115.896 26.4116 118.819 26.4631C121.793 26.4631 124.742 26.5145 127.666 26.6174C128.332 26.6689 128.973 26.7461 129.589 26.849C130.204 26.9519 130.82 27.132 131.435 27.3892C131.897 27.5436 132.333 27.7494 132.743 28.0067C133.153 28.2125 133.486 28.4955 133.743 28.8557Z" fill="#64BAE6"/>
<path d="M179.231 58.6473C179.487 59.3677 179.667 60.1909 179.769 61.1171C179.923 61.9918 180 62.8922 180 63.8184C180 64.7446 179.923 65.6707 179.769 66.5969C179.667 67.4716 179.513 68.2434 179.308 68.9123C178.487 71.7937 176.846 74.2121 174.384 76.1673C171.923 78.0711 169.102 79.4603 165.922 80.335C162.794 81.2098 159.537 81.5185 156.152 81.2612C152.819 81.0039 149.844 80.1549 147.229 78.7142C145.588 77.7881 144.177 76.6561 142.998 75.3183C141.818 73.9805 140.818 72.4883 139.997 70.8418C139.69 70.2758 139.485 69.6327 139.382 68.9123C139.331 68.1405 139.408 67.4202 139.613 66.7513C139.818 66.0309 140.151 65.4135 140.613 64.8989C141.074 64.3329 141.715 63.947 142.536 63.7412C143.049 63.6383 143.613 63.5869 144.228 63.5869C144.895 63.5869 145.536 63.6898 146.152 63.8956C146.767 64.0499 147.331 64.3329 147.844 64.7446C148.357 65.1047 148.767 65.6193 149.075 66.2882C149.639 67.3687 150.434 68.3721 151.46 69.2982C152.537 70.1729 153.665 70.8933 154.845 71.4593C156.537 72.0253 158.229 72.2568 159.922 72.1539C161.665 72.051 163.23 71.6651 164.614 70.9962C166.05 70.3273 167.204 69.4269 168.076 68.2949C168.948 67.1114 169.384 65.7736 169.384 64.2815C169.384 63.0466 169.204 62.0433 168.845 61.2715C168.486 60.4482 167.974 59.7793 167.307 59.2648C166.691 58.6988 165.922 58.2357 164.999 57.8755C164.127 57.5153 163.153 57.2066 162.076 56.9493C160.845 56.6921 159.588 56.512 158.306 56.4091C157.075 56.3062 155.819 56.1775 154.537 56.0232C153.255 55.8688 151.998 55.663 150.767 55.4057C149.537 55.1485 148.331 54.7626 147.152 54.248C144.793 53.2704 142.998 51.7783 141.767 49.7716C140.536 47.7649 139.792 45.6039 139.536 43.2884C139.331 40.973 139.613 38.6833 140.382 36.4194C141.151 34.104 142.382 32.123 144.075 30.4764C145.716 28.9843 147.665 27.9295 149.921 27.312C152.229 26.6431 154.768 26.2572 157.537 26.1543C159.076 26.1029 160.614 26.1543 162.153 26.3087C163.743 26.4631 165.255 26.7203 166.691 27.0805C168.179 27.4407 169.538 27.9038 170.769 28.4697C172.051 29.0357 173.153 29.7046 174.077 30.4764C174.743 30.991 175.41 31.6856 176.077 32.5603C176.743 33.3836 177.256 34.284 177.615 35.2617C177.974 36.1878 178.077 37.0883 177.923 37.963C177.82 38.8377 177.282 39.5838 176.307 40.2012C175.487 40.7158 174.692 40.9473 173.923 40.8958C173.205 40.7929 172.512 40.5614 171.846 40.2012C171.179 39.7896 170.538 39.3265 169.922 38.812C169.307 38.2974 168.743 37.8343 168.23 37.4227C166.845 36.3936 165.127 35.699 163.076 35.3388C161.024 34.9787 159.101 34.9015 157.306 35.1073C156.178 35.2616 155.127 35.5189 154.152 35.8791C153.178 36.2393 152.332 36.7281 151.614 37.3455C150.947 37.963 150.408 38.7348 149.998 39.661C149.639 40.5357 149.511 41.539 149.613 42.671C149.665 43.4943 149.896 44.1889 150.306 44.7549C150.767 45.3209 151.306 45.784 151.921 46.1441C152.588 46.5043 153.306 46.7873 154.075 46.9931C154.845 47.1989 155.614 47.3533 156.383 47.4562C158.691 47.7649 160.999 47.9965 163.307 48.1508C165.614 48.3052 167.871 48.8197 170.076 49.6944C172.333 50.5691 174.256 51.7525 175.846 53.2447C177.436 54.7368 178.564 56.5377 179.231 58.6473Z" fill="#F18420"/>
<path d="M102.818 44.4461L102.895 38.3488L102.972 37.0033C103.023 35.3568 103.049 33.6588 103.049 31.9094C103.049 30.16 103.049 28.3591 103.049 26.5067C103.049 24.6544 103.049 23.0079 103.049 21.5672C103.049 20.1265 103.1 18.5057 103.203 16.7048V16.3961C103.254 15.8816 103.28 15.367 103.28 14.8525C103.331 14.2865 103.357 13.7205 103.357 13.1545C103.408 12.2283 103.69 11.225 104.203 10.1445C104.562 9.42412 105.1 8.80668 105.818 8.29214C106.639 7.88051 107.434 7.6747 108.203 7.6747C108.613 7.6747 108.972 7.70042 109.28 7.75188C109.639 7.75188 109.972 7.7776 110.28 7.82906C110.947 7.93197 111.537 8.24069 112.05 8.75523C112.357 9.01249 112.639 9.42412 112.896 9.99011C112.998 10.2988 113.075 10.6076 113.127 10.9163C113.229 11.1735 113.306 11.4565 113.357 11.7653C113.409 12.1254 113.434 12.4599 113.434 12.7686C113.486 13.0773 113.511 13.3861 113.511 13.6948C113.511 14.055 113.486 14.3894 113.434 14.6981C113.434 14.9554 113.434 15.2384 113.434 15.5471V16.8592L112.973 46.9159V47.6877C112.973 47.842 112.947 48.0479 112.896 48.3051C112.896 48.5109 112.87 48.7682 112.819 49.0769C112.716 49.3342 112.614 49.6172 112.511 49.9259C112.46 50.1832 112.383 50.4662 112.28 50.7749C112.126 51.0322 111.947 51.2894 111.742 51.5467C111.588 51.7525 111.383 51.9583 111.126 52.1642C110.716 52.5758 110.049 52.8588 109.126 53.0131C107.742 53.3219 106.434 53.1932 105.203 52.6272C104.587 52.2156 104.152 51.7011 103.895 51.0836C103.741 50.9293 103.664 50.7749 103.664 50.6205C103.613 50.5176 103.562 50.4405 103.51 50.389C103.459 50.3376 103.408 50.2604 103.357 50.1575C103.254 49.9002 103.177 49.6429 103.126 49.3857C103.075 49.0769 103.049 48.7682 103.049 48.4595C102.998 48.2022 102.946 47.945 102.895 47.6877C102.895 47.4304 102.869 47.1731 102.818 46.9159C102.767 46.5042 102.767 46.0669 102.818 45.6038V44.4461Z" fill="#64BAE6"/>
<path d="M63.2332 75.5499C63.6434 76.3217 63.6691 77.0935 63.3101 77.8653C63.0537 78.6885 62.6177 79.306 62.0023 79.7176C61.6946 79.9749 61.4125 80.2064 61.1561 80.4122C60.8997 80.5666 60.6176 80.6952 60.3099 80.7981C59.7458 81.1068 59.079 81.2098 58.3098 81.1068C58.0021 81.1068 57.72 81.0554 57.4636 80.9525C57.2071 80.8496 56.9507 80.7209 56.6943 80.5666C56.4379 80.4122 56.1558 80.2579 55.8481 80.1035C55.5916 79.8977 55.3352 79.6919 55.0788 79.4861C54.7711 79.2288 54.489 78.9972 54.2326 78.7914C53.9762 78.5856 53.7454 78.3541 53.5402 78.0968C53.2838 77.8395 53.053 77.5823 52.8479 77.325C52.6427 77.0677 52.4376 76.8362 52.2325 76.6304L51.3093 75.627L36.5391 60.1137L36.7699 75.627V76.3217C36.7699 76.5275 36.7443 76.759 36.693 77.0163C36.6417 77.2221 36.5904 77.4536 36.5391 77.7109C36.3853 78.3798 36.2058 78.9715 36.0006 79.4861C35.8981 79.7948 35.7442 80.052 35.5391 80.2579C35.3852 80.4637 35.2057 80.6695 35.0006 80.8753C34.4364 81.3898 33.7697 81.6728 33.0004 81.7243C32.2312 81.9816 31.5132 82.0588 30.8465 81.9558C30.231 81.9044 29.59 81.7243 28.9233 81.4156C28.4104 81.1068 27.9488 80.5923 27.5386 79.872C27.436 79.6661 27.3591 79.5375 27.3078 79.4861C27.3078 79.4346 27.2565 79.2545 27.1539 78.9458C26.8462 78.4313 26.6924 77.9167 26.6924 77.4022C26.6411 77.0935 26.5898 76.8105 26.5385 76.5532C26.5385 76.2959 26.5129 76.0129 26.4616 75.7042C26.4103 75.4984 26.3846 75.2926 26.3846 75.0868C26.3846 74.881 26.3846 74.6751 26.3846 74.4693C26.4359 74.2121 26.4616 74.0062 26.4616 73.8519C26.4616 73.6461 26.4616 73.4145 26.4616 73.1572L26.3846 67.06L26.3077 55.7145C26.3077 52.4214 26.2308 48.8712 26.0769 45.0636C26.0256 43.2113 26 41.5647 26 40.124C26 38.6833 26.0256 37.0625 26.0769 35.2617V34.9529C26.1795 34.3869 26.2308 33.8467 26.2308 33.3321C26.2308 32.7661 26.2564 32.2259 26.3077 31.7113C26.3077 30.6823 26.5385 29.6532 27.0001 28.6241C27.3078 27.8523 27.8463 27.2349 28.6156 26.7718C29.0258 26.5145 29.4105 26.3601 29.7695 26.3087C30.1798 26.2058 30.6157 26.1029 31.0772 26C31.4362 26 31.7696 26.0257 32.0773 26.0772C32.4363 26.1286 32.7697 26.1801 33.0774 26.2315C33.7441 26.3344 34.3595 26.6174 34.9236 27.0805C35.0775 27.2349 35.2057 27.415 35.3083 27.6208C35.4621 27.8266 35.5904 28.0838 35.6929 28.3926C35.9494 28.8042 36.1289 29.3959 36.2314 30.1677C36.2827 30.4764 36.3084 30.7852 36.3084 31.0939C36.3596 31.4026 36.3853 31.7371 36.3853 32.0972V35.2617L36.4622 44.6777C37.2828 43.9573 38.0777 43.2113 38.847 42.4395C39.6675 41.6677 40.4625 40.8444 41.2317 39.9697C42.6165 38.529 43.9755 37.1397 45.3089 35.8019C46.6936 34.4127 48.0783 33.0491 49.463 31.7113L49.6938 31.4798C50.1041 31.0682 50.5144 30.6823 50.9247 30.3221C51.3862 29.9105 51.8222 29.5246 52.2325 29.1644C53.0017 28.2897 53.9505 27.6722 55.0788 27.312C55.7968 26.849 56.643 26.6689 57.6174 26.7718C58.079 26.8232 58.4893 26.9261 58.8483 27.0805C59.2585 27.2349 59.6432 27.4407 60.0022 27.6979C60.2586 27.9552 60.515 28.1868 60.7715 28.3926C61.0279 28.5469 61.233 28.7527 61.3869 29.01C61.7972 29.3702 62.0536 29.9105 62.1562 30.6308C62.1562 31.1968 62.0536 31.7113 61.8485 32.1744C61.6946 32.4317 61.5407 32.689 61.3869 32.9462C61.233 33.2035 61.0535 33.4608 60.8484 33.718C60.592 34.0268 60.3612 34.3097 60.156 34.567C59.9509 34.8243 59.7201 35.0816 59.4637 35.3388C59.2585 35.5961 59.0278 35.8276 58.7713 36.0335C58.5662 36.2393 58.361 36.4708 58.1559 36.7281L57.1558 37.7314L42.7703 52.4729C43.5396 53.2447 44.3345 54.0679 45.1551 54.9427C46.0269 55.7659 46.8475 56.5892 47.6168 57.4124C48.3861 58.1842 49.104 58.9303 49.7708 59.6507C50.4375 60.3196 51.0016 60.8855 51.4632 61.3486C52.8479 62.7893 54.1813 64.23 55.4634 65.6707C56.7456 67.06 58.0021 68.475 59.2329 69.9157L59.4637 70.1472C59.874 70.5588 60.2586 70.9962 60.6176 71.4593C60.9766 71.8709 61.31 72.2825 61.6177 72.6942C62.3869 73.5689 62.9254 74.5208 63.2332 75.5499Z" stroke="black" stroke-width="6" mask="url(#path-5-outside-1_12_65)"/>
<path d="M133.743 28.8557C134.307 29.5246 134.589 30.2192 134.589 30.9395C134.589 31.2482 134.563 31.5827 134.512 31.9429C134.512 32.2516 134.487 32.5346 134.435 32.7919C134.281 33.3579 133.948 33.8981 133.435 34.4127C133.025 34.7214 132.461 34.9529 131.743 35.1073C131.384 35.2102 131.025 35.2874 130.666 35.3388C130.307 35.3903 129.922 35.4675 129.512 35.5704C129.153 35.6218 128.794 35.6476 128.435 35.6476C128.076 35.6476 127.691 35.6476 127.281 35.6476H123.358C122.434 35.699 121.511 35.7247 120.588 35.7247C119.716 35.7247 113.845 35.7247 112.973 35.7247C113.024 37.3198 113.05 39.0435 113.05 40.8958C113.05 42.6967 113.024 44.8063 112.973 47.2247C112.973 49.643 112.947 52.4472 112.896 55.6373C112.896 58.8274 112.896 62.5321 112.896 66.7513V82.617C112.896 83.1315 112.921 83.5174 112.973 83.7747C112.973 83.9805 112.973 84.1863 112.973 84.3921C112.973 84.5465 112.947 84.7523 112.896 85.0096C112.793 85.4727 112.716 86.0129 112.665 86.6304C112.665 86.8876 112.639 87.1449 112.588 87.4022C112.537 87.608 112.46 87.8395 112.357 88.0968C112.152 88.3026 112.05 88.457 112.05 88.5599L111.819 89.023C111.562 89.5375 111.075 90.0263 110.357 90.4894C109.229 91.0554 107.972 91.184 106.588 90.8753C105.716 90.7724 105.049 90.5408 104.588 90.1807C104.126 89.7176 103.793 89.2545 103.587 88.7914C103.28 88.2254 103.1 87.6852 103.049 87.1706C102.895 86.7076 102.818 86.2188 102.818 85.7042V36.0335C102.51 36.0335 106.869 36.0335 105.895 36.0335C104.921 36.0335 81.8692 36.0335 80.7409 36.0335C79.6639 35.982 78.6382 35.9305 77.6638 35.8791C76.6894 35.8276 76.0227 35.7762 75.6637 35.7247C75.3559 35.6733 74.8687 35.5961 74.202 35.4932C73.5866 35.3903 73.0737 35.2874 72.6635 35.1845C71.5865 34.8757 70.7403 34.3869 70.1248 33.718C69.5607 33.0491 69.2786 32.3031 69.2786 31.4798C69.2786 31.1711 69.2786 30.8623 69.2786 30.5536C69.2786 30.2449 69.3299 29.9619 69.4325 29.7046C69.5863 29.0872 69.9966 28.5727 70.6633 28.161C70.8685 28.0067 71.1762 27.8266 71.5865 27.6208C72.048 27.3635 72.484 27.1834 72.8942 27.0805C73.5097 26.8747 74.2789 26.7203 75.2021 26.6174C75.6124 26.566 76.0227 26.5402 76.4329 26.5402C76.8432 26.5402 77.2791 26.5402 77.7407 26.5402C79.5357 26.5402 103.228 26.5402 104.818 26.5402C106.459 26.5402 108.177 26.5145 109.972 26.4631C112.947 26.4116 115.896 26.4116 118.819 26.4631C121.793 26.4631 124.742 26.5145 127.666 26.6174C128.332 26.6689 128.973 26.7461 129.589 26.849C130.204 26.9519 130.82 27.132 131.435 27.3892C131.897 27.5436 132.333 27.7494 132.743 28.0067C133.153 28.2125 133.486 28.4955 133.743 28.8557Z" stroke="black" stroke-width="6" mask="url(#path-5-outside-1_12_65)"/>
<path d="M179.231 58.6473C179.487 59.3677 179.667 60.1909 179.769 61.1171C179.923 61.9918 180 62.8922 180 63.8184C180 64.7446 179.923 65.6707 179.769 66.5969C179.667 67.4716 179.513 68.2434 179.308 68.9123C178.487 71.7937 176.846 74.2121 174.384 76.1673C171.923 78.0711 169.102 79.4603 165.922 80.335C162.794 81.2098 159.537 81.5185 156.152 81.2612C152.819 81.0039 149.844 80.1549 147.229 78.7142C145.588 77.7881 144.177 76.6561 142.998 75.3183C141.818 73.9805 140.818 72.4883 139.997 70.8418C139.69 70.2758 139.485 69.6327 139.382 68.9123C139.331 68.1405 139.408 67.4202 139.613 66.7513C139.818 66.0309 140.151 65.4135 140.613 64.8989C141.074 64.3329 141.715 63.947 142.536 63.7412C143.049 63.6383 143.613 63.5869 144.228 63.5869C144.895 63.5869 145.536 63.6898 146.152 63.8956C146.767 64.0499 147.331 64.3329 147.844 64.7446C148.357 65.1047 148.767 65.6193 149.075 66.2882C149.639 67.3687 150.434 68.3721 151.46 69.2982C152.537 70.1729 153.665 70.8933 154.845 71.4593C156.537 72.0253 158.229 72.2568 159.922 72.1539C161.665 72.051 163.23 71.6651 164.614 70.9962C166.05 70.3273 167.204 69.4269 168.076 68.2949C168.948 67.1114 169.384 65.7736 169.384 64.2815C169.384 63.0466 169.204 62.0433 168.845 61.2715C168.486 60.4482 167.974 59.7793 167.307 59.2648C166.691 58.6988 165.922 58.2357 164.999 57.8755C164.127 57.5153 163.153 57.2066 162.076 56.9493C160.845 56.6921 159.588 56.512 158.306 56.4091C157.075 56.3062 155.819 56.1775 154.537 56.0232C153.255 55.8688 151.998 55.663 150.767 55.4057C149.537 55.1485 148.331 54.7626 147.152 54.248C144.793 53.2704 142.998 51.7783 141.767 49.7716C140.536 47.7649 139.792 45.6039 139.536 43.2884C139.331 40.973 139.613 38.6833 140.382 36.4194C141.151 34.104 142.382 32.123 144.075 30.4764C145.716 28.9843 147.665 27.9295 149.921 27.312C152.229 26.6431 154.768 26.2572 157.537 26.1543C159.076 26.1029 160.614 26.1543 162.153 26.3087C163.743 26.4631 165.255 26.7203 166.691 27.0805C168.179 27.4407 169.538 27.9038 170.769 28.4697C172.051 29.0357 173.153 29.7046 174.077 30.4764C174.743 30.991 175.41 31.6856 176.077 32.5603C176.743 33.3836 177.256 34.284 177.615 35.2617C177.974 36.1878 178.077 37.0883 177.923 37.963C177.82 38.8377 177.282 39.5838 176.307 40.2012C175.487 40.7158 174.692 40.9473 173.923 40.8958C173.205 40.7929 172.512 40.5614 171.846 40.2012C171.179 39.7896 170.538 39.3265 169.922 38.812C169.307 38.2974 168.743 37.8343 168.23 37.4227C166.845 36.3936 165.127 35.699 163.076 35.3388C161.024 34.9787 159.101 34.9015 157.306 35.1073C156.178 35.2616 155.127 35.5189 154.152 35.8791C153.178 36.2393 152.332 36.7281 151.614 37.3455C150.947 37.963 150.408 38.7348 149.998 39.661C149.639 40.5357 149.511 41.539 149.613 42.671C149.665 43.4943 149.896 44.1889 150.306 44.7549C150.767 45.3209 151.306 45.784 151.921 46.1441C152.588 46.5043 153.306 46.7873 154.075 46.9931C154.845 47.1989 155.614 47.3533 156.383 47.4562C158.691 47.7649 160.999 47.9965 163.307 48.1508C165.614 48.3052 167.871 48.8197 170.076 49.6944C172.333 50.5691 174.256 51.7525 175.846 53.2447C177.436 54.7368 178.564 56.5377 179.231 58.6473Z" stroke="black" stroke-width="6" mask="url(#path-5-outside-1_12_65)"/>
<path d="M102.818 44.4461L102.895 38.3488L102.972 37.0033C103.023 35.3568 103.049 33.6588 103.049 31.9094C103.049 30.16 103.049 28.3591 103.049 26.5067C103.049 24.6544 103.049 23.0079 103.049 21.5672C103.049 20.1265 103.1 18.5057 103.203 16.7048V16.3961C103.254 15.8816 103.28 15.367 103.28 14.8525C103.331 14.2865 103.357 13.7205 103.357 13.1545C103.408 12.2283 103.69 11.225 104.203 10.1445C104.562 9.42412 105.1 8.80668 105.818 8.29214C106.639 7.88051 107.434 7.6747 108.203 7.6747C108.613 7.6747 108.972 7.70042 109.28 7.75188C109.639 7.75188 109.972 7.7776 110.28 7.82906C110.947 7.93197 111.537 8.24069 112.05 8.75523C112.357 9.01249 112.639 9.42412 112.896 9.99011C112.998 10.2988 113.075 10.6076 113.127 10.9163C113.229 11.1735 113.306 11.4565 113.357 11.7653C113.409 12.1254 113.434 12.4599 113.434 12.7686C113.486 13.0773 113.511 13.3861 113.511 13.6948C113.511 14.055 113.486 14.3894 113.434 14.6981C113.434 14.9554 113.434 15.2384 113.434 15.5471V16.8592L112.973 46.9159V47.6877C112.973 47.842 112.947 48.0479 112.896 48.3051C112.896 48.5109 112.87 48.7682 112.819 49.0769C112.716 49.3342 112.614 49.6172 112.511 49.9259C112.46 50.1832 112.383 50.4662 112.28 50.7749C112.126 51.0322 111.947 51.2894 111.742 51.5467C111.588 51.7525 111.383 51.9583 111.126 52.1642C110.716 52.5758 110.049 52.8588 109.126 53.0131C107.742 53.3219 106.434 53.1932 105.203 52.6272C104.587 52.2156 104.152 51.7011 103.895 51.0836C103.741 50.9293 103.664 50.7749 103.664 50.6205C103.613 50.5176 103.562 50.4405 103.51 50.389C103.459 50.3376 103.408 50.2604 103.357 50.1575C103.254 49.9002 103.177 49.6429 103.126 49.3857C103.075 49.0769 103.049 48.7682 103.049 48.4595C102.998 48.2022 102.946 47.945 102.895 47.6877C102.895 47.4304 102.869 47.1731 102.818 46.9159C102.767 46.5042 102.767 46.0669 102.818 45.6038V44.4461Z" stroke="black" stroke-width="6" mask="url(#path-5-outside-1_12_65)"/>
<path d="M122.122 80.75L122.078 80.7451L122.033 80.7429C119.462 80.6134 116.87 80.5485 114.255 80.5482C111.685 80.4838 109.092 80.4839 106.478 80.5487L106.466 80.549L106.454 80.5495C104.906 80.6129 103.427 80.6446 102.017 80.6446H78.3853H77.244C76.8006 80.6446 76.3587 80.684 75.9194 80.7619C75.0534 80.901 74.2608 81.1164 73.5742 81.435C73.0563 81.6322 72.5677 81.9352 72.1093 82.2972C71.7526 82.5548 71.4242 82.8207 71.1621 83.0922C70.3718 83.8101 69.8676 84.7171 69.6697 85.7665C69.5523 86.2152 69.5 86.6814 69.5 87.1566V88.3132C69.5 89.5924 69.8096 90.7899 70.4463 91.8701L70.4611 91.8952L70.4768 91.9197C71.1843 93.0199 72.1675 93.8282 73.3849 94.3276L73.4159 94.3403L73.4474 94.3516C73.8745 94.5048 74.3789 94.648 74.9479 94.7841L74.9606 94.7872L74.9734 94.79C75.5542 94.9183 75.9685 95.0123 76.2235 95.0733L76.2473 95.079L76.2712 95.0839C76.6905 95.1699 77.3622 95.2393 78.2052 95.303C79.0595 95.3675 79.9583 95.432 80.9014 95.4965L80.9525 95.5H81.0037C81.5145 95.5 86.7953 95.4031 92.018 95.307L92.4657 95.2987C97.5648 95.2049 102.481 95.1145 102.876 95.1145H109.134H115.781C116.606 95.1145 117.432 95.0823 118.257 95.0181H121.622H122.629C123.045 95.0181 123.46 94.9753 123.87 94.8911L123.975 94.8696L124.076 94.8335C124.379 94.7247 124.645 94.6495 124.877 94.6019C125.266 94.5223 125.648 94.4061 126.023 94.2565C126.814 94.0036 127.531 93.6007 128.092 92.9967L128.164 92.9196L128.224 92.8333C128.781 92.0329 129.162 91.1638 129.339 90.2317L129.346 90.1954L129.351 90.1588C129.404 89.7804 129.43 89.3821 129.433 88.967C129.477 88.5026 129.5 88.0592 129.5 87.6385C129.5 86.4671 129.18 85.3539 128.58 84.3189C128.277 83.7272 127.867 83.2094 127.333 82.8084C126.911 82.4379 126.453 82.1266 125.959 81.8829C125.326 81.5111 124.668 81.2346 123.985 81.0713C123.384 80.9274 122.762 80.8207 122.122 80.75Z" fill="#64BAE5" stroke="black" stroke-width="3"/>
<path d="M21.1955 86.2658L21.3149 86.0694L21.37 85.8463C21.4192 85.6472 21.4586 85.4374 21.4781 85.2228C21.5457 84.9727 21.5645 84.7345 21.5682 84.5461C21.6902 83.1987 21.3216 81.8704 20.6057 80.5985C20.0686 79.609 19.6673 78.7189 19.3905 77.9252L19.3731 77.8755L19.3524 77.8271C18.859 76.6787 18.4134 75.4776 18.016 74.2234C17.6602 72.9365 17.33 71.6761 17.0252 70.4422L17.0157 70.4037L17.0041 70.3656C16.6079 69.0622 16.3138 67.8195 16.1188 66.6366C16.1185 66.635 16.1183 66.6334 16.118 66.6318L15.5044 62.7503C15.2029 59.9913 15.0517 57.1522 15.0517 54.2326C15.0517 48.3249 15.7114 42.4141 17.0329 36.4983L17.0341 36.493C17.436 34.6625 17.9384 32.8573 18.5414 31.0771L18.5414 31.0772L18.5454 31.0651C19.1582 29.2044 19.8223 27.3168 20.5379 25.4023C20.7076 24.9751 20.9484 24.4824 21.27 23.9213C21.7251 23.2236 22.0727 22.5083 22.2773 21.7775C22.5596 20.9574 22.6178 20.0399 22.1897 19.1733C21.8891 18.5649 21.3801 18.19 20.8899 17.9645C20.4118 17.7446 19.8701 17.6264 19.3219 17.5636C18.3558 17.4355 17.3607 17.504 16.3495 17.7404C15.3511 17.9227 14.4379 18.2334 13.6426 18.703L13.5908 18.7336L13.5416 18.7682C12.1708 19.7334 11.0454 20.9669 10.1666 22.4494L10.1552 22.4686L10.1444 22.4881C9.41081 23.814 8.75268 25.092 8.17095 26.3218C7.373 27.8853 6.67999 29.4774 6.09252 31.098C5.5154 32.6384 4.96511 34.2301 4.44152 35.8729L4.43487 35.8938L4.42883 35.9148C3.95693 37.56 3.53688 39.1804 3.16891 40.7761C2.7978 42.3329 2.48072 43.9653 2.21698 45.6725C1.95256 47.2795 1.76612 48.814 1.65917 50.2753C1.55351 51.7191 1.5 53.0648 1.5 54.3112C1.5 55.8464 1.52615 57.4072 1.5784 58.9937L1.57846 58.9954C1.63155 60.5537 1.76392 62.0406 1.97744 63.455C2.13852 64.9646 2.37947 66.4256 2.70133 67.8372L2.70127 67.8372L2.70426 67.8499C3.02262 69.1924 3.39368 70.534 3.81727 71.8744C4.24214 73.2712 4.72021 74.6419 5.25154 75.9864L5.26501 76.0204L5.28013 76.0538C5.86318 77.3414 6.49859 78.6275 7.1861 79.9121L7.19724 79.9329L7.20902 79.9534C7.58367 80.6034 8.00893 81.3026 8.48381 82.0503L8.49048 82.0608L8.49732 82.0712C9.03564 82.8885 9.60133 83.6792 10.1944 84.4432C10.8086 85.2344 11.4579 85.95 12.1436 86.5862L12.1654 86.6065L12.1881 86.6259C12.9704 87.2958 13.8147 87.8121 14.7229 88.1443C15.8309 88.5854 17.0047 88.5997 18.1788 88.2784C19.4333 88.0014 20.5224 87.3728 21.1955 86.2658ZM180.63 85.8463L180.685 86.0694L180.805 86.2658C181.478 87.3729 182.567 88.0014 183.821 88.2784C184.995 88.5997 186.169 88.5854 187.277 88.1443C188.185 87.8121 189.03 87.2958 189.812 86.6259L189.835 86.6065L189.856 86.5862C190.542 85.95 191.191 85.2344 191.806 84.4432C192.399 83.6792 192.964 82.8885 193.503 82.0712L193.51 82.0608L193.516 82.0503C193.991 81.3026 194.416 80.6034 194.791 79.9534L194.803 79.9329L194.814 79.9121C195.501 78.6275 196.137 77.3414 196.72 76.0538L196.735 76.0204L196.748 75.9864C197.28 74.6419 197.758 73.2712 198.183 71.8743C198.606 70.5339 198.977 69.1924 199.296 67.8499L199.299 67.8372C199.621 66.4256 199.861 64.9646 200.023 63.455C200.236 62.0406 200.368 60.5537 200.422 58.9954L200.422 58.9937C200.474 57.4072 200.5 55.8464 200.5 54.3112C200.5 53.0649 200.447 51.7191 200.341 50.2753C200.234 48.8139 200.047 47.2791 199.783 45.6718C199.519 43.9648 199.202 42.3326 198.831 40.7759C198.463 39.1803 198.043 37.5599 197.571 35.9148L197.565 35.8938L197.558 35.8729C197.035 34.2302 196.485 32.6385 195.908 31.0982C195.32 29.4775 194.627 27.8853 193.829 26.3218C193.247 25.0919 192.589 23.814 191.856 22.4881L191.845 22.4686L191.833 22.4494C190.955 20.9669 189.829 19.7334 188.458 18.7682L188.409 18.7336L188.357 18.703C187.562 18.2334 186.649 17.9227 185.65 17.7403C184.639 17.504 183.644 17.4355 182.678 17.5636C182.13 17.6264 181.588 17.7446 181.11 17.9645C180.62 18.19 180.111 18.5649 179.81 19.1733C179.382 20.0398 179.44 20.9573 179.723 21.7774C179.927 22.5083 180.275 23.2236 180.73 23.9214C181.052 24.4823 181.292 24.9749 181.462 25.4019C182.178 27.3166 182.842 29.2043 183.455 31.0651L183.459 31.0771C184.062 32.8572 184.564 34.6625 184.966 36.493L184.967 36.4983C186.289 42.4141 186.948 48.3249 186.948 54.2326C186.948 57.1523 186.797 59.9914 186.496 62.7504L185.882 66.6318C185.882 66.633 185.882 66.6342 185.881 66.6353C185.686 67.8186 185.392 69.0617 184.996 70.3656L184.984 70.4037L184.975 70.4422C184.67 71.6761 184.34 72.9365 183.984 74.2233C183.587 75.4776 183.141 76.6786 182.648 77.827L182.627 77.8755L182.61 77.9252C182.333 78.7191 181.931 79.6094 181.394 80.5991C180.678 81.8709 180.31 83.199 180.432 84.5462C180.436 84.7346 180.454 84.9727 180.522 85.2228C180.541 85.4375 180.581 85.6472 180.63 85.8463Z" fill="#F3EB1D" stroke="black" stroke-width="3"/>
<path d="M224.1 25.0662C224.1 21.898 223.031 19.3579 220.87 17.5706C221.502 17.0148 222.021 16.3602 222.418 15.6068C223.084 14.3552 223.392 12.8936 223.392 11.2646C223.392 8.24291 222.268 5.80721 219.977 4.11083L219.974 4.1086C217.923 2.60086 215.279 1.9 212.145 1.9C210.647 1.9 208.857 2.50595 206.841 3.5498C205.685 4.14777 204.742 4.78494 204.075 5.4798C203.403 6.1794 202.942 7.01315 202.942 7.96692C202.942 8.97768 203.329 9.87264 204.028 10.6145C204.755 11.3857 205.678 11.7947 206.736 11.7947C207.223 11.7947 207.733 11.5967 208.172 11.3857C208.65 11.156 209.208 10.8268 209.838 10.4131L209.838 10.4131L209.845 10.4084C210.958 9.66491 211.867 9.37226 212.597 9.37226C214.069 9.37226 214.968 9.61854 215.466 9.94779C215.876 10.2192 216.097 10.5977 216.079 11.2768L216.079 11.2827C216.072 11.6415 215.954 11.9267 215.7 12.1899C215.429 12.4699 214.957 12.7635 214.186 13.0143C212.801 13.3492 211.409 13.6775 210.01 13.9992L209.953 14.0123L209.898 14.0314C209.046 14.3254 208.301 14.7409 207.762 15.3334C207.201 15.9497 206.915 16.7017 206.915 17.5344C206.915 18.5364 207.254 19.4405 208.017 20.1012C208.739 20.7262 209.717 21.0261 210.796 21.1327C212.874 21.3449 214.265 21.8903 215.124 22.6385C215.943 23.352 216.394 24.3507 216.394 25.7786C216.394 26.4911 216.105 27.1227 215.38 27.7166L215.38 27.7166L215.375 27.7214C214.647 28.3257 213.81 28.6277 212.813 28.6277C211.389 28.6277 210.492 28.326 209.951 27.8914C209.941 27.8801 209.924 27.8601 209.898 27.829C209.834 27.7518 209.745 27.6385 209.628 27.4842C209.394 27.177 209.07 26.7351 208.652 26.1543L208.652 26.1543L208.646 26.1454C207.945 25.191 206.957 24.6786 205.773 24.6786C204.802 24.6786 203.924 25.0029 203.178 25.6276L203.178 25.6276L203.172 25.6331C202.342 26.3395 201.9 27.2743 201.9 28.3639C201.9 28.8082 201.972 29.2415 202.123 29.6554C202.907 31.8372 204.426 33.5038 206.597 34.6496L206.601 34.6522C208.466 35.6246 210.544 36.1 212.813 36.1C215.924 36.1 218.607 35.0301 220.798 32.8976C222.991 30.763 224.1 28.1308 224.1 25.0662Z" fill="#79E619" stroke="black" stroke-width="2.2"/>
</svg>
